<svg version="1" xmlns="http://www.w3.org/2000/svg" width="682.667" height="682.667" viewBox="0 0 512.000000 512.000000"><path d="M219.5 21.6c-65 12-114.2 60.2-126.4 123.8-2.7 13.9-3.7 33.2-2.1 41.6.7 3.6 1.6 9 2 12 .4 3 1.3 6.8 1.9 8.5 1.1 3 6.1 59.4 6.1 69.4 0 7.4-1.8 12.9-5.4 16-12.9 11.5-16.6 18-16.6 29.7 0 5.5 1.3 10.6 7.5 29.9 4.3 13.1 8.8 25.2 10.5 27.8 6.1 9.6 16.9 14.5 29.4 13.2 3.9-.4 10.9-.8 15.6-.8 7.3-.1 9.3.3 14 2.5 3 1.5 7.3 4.5 9.4 6.7l3.9 4 .2 16.3c.1 9.4.7 18.4 1.5 21.3 6.4 25.1 26.7 41.6 57.9 47 13.1 2.3 42.7 2 55.4-.6 13.4-2.7 23.9-6.9 32.4-12.9 8.5-5.9 13-11 17.8-20.1 4.8-9.1 6.5-17.7 6.5-32.9 0-16.1.7-18.5 7.5-24.9 9.5-9 16.3-10.8 27-7.1 14.2 4.9 29.2.5 37.6-10.8 4.2-5.8 18.3-49.2 17.5-54.1-.3-2-2.4-7.3-4.6-11.8-3.3-6.8-5.4-9.5-12-15.4-11.4-10.4-11.2-8.5-7.1-57.3 1.9-21.5 3.7-40 4.1-41.1.4-1.1 1.5-6.5 2.5-12 4.2-23.6-1.9-57.4-15.1-83.6C376.7 62.6 339 33.3 291 22.4c-10.7-2.4-59.9-3-71.5-.8zm-28.6 213c11.5 2.6 19.4 7.1 24.7 13.9 4.1 5.5 12.1 41 10.8 48.2-1.6 9-8.8 18.6-20.7 27.8-3.6 2.7-7.7 6.8-9.1 9.1-3.9 6.2-12.9 14.2-19.2 17.1-4.7 2.1-6.6 2.5-12.7 2.1-15.1-.8-28.6-10.7-36.7-27-5.5-11.1-7-17.2-7.7-30.8-.5-10.5-.3-12.4 2.2-21.4 3.8-14 7.9-21.9 15-29.1 6.3-6.4 13-10.2 20.5-11.5 6-1.1 25-.2 32.9 1.6zm148.2-1.6c22.8 4.3 40.1 29.3 40.1 58 0 24.5-13.5 50.1-30.8 58.6-5 2.5-7.1 2.9-13.9 2.9-10.6 0-15.1-2.3-27.5-14.1-5.2-4.9-13-11.8-17.2-15.2-14.8-12-19.1-19.5-19-33.2.2-20.8 5.6-37.9 14.4-45.4 7.7-6.6 17.8-10.2 32.3-11.6 12.1-1.1 15.7-1.1 21.6 0zm-82.4 95.5c1.4 1 3.3 5 5.3 11.2 3.4 10.4 10.4 24.5 14.9 30.3 8.9 11.3 9.5 25.5 1.4 35.1-7.1 8.4-18.3 7.6-24.3-1.7l-2.7-4.3-2.4 3.6c-3.5 5.3-7.1 7.5-12.9 8.1-5.1.5-5.2.4-9.9-4.5-5.8-6.1-7.6-11.4-6.9-21.6.5-8 2.3-12.2 7.5-18.1 2-2.1 4.9-6.8 6.5-10.5 1.6-3.6 3.8-8.5 4.9-10.9 1-2.3 1.9-4.9 1.9-5.8 0-2.1 2.8-7.4 5.3-10.2 2.4-2.6 8.1-3 11.4-.7z"/></svg>