<svg id="chancellor_xA0_Image_1_" xmlns="http://www.w3.org/2000/svg" width="54.03" height="379.76" viewBox="0 0 54.03 379.76"><g fill-rule="evenodd" clip-rule="evenodd"><g id="chancellor-outer" fill="#fff"><path d="M26.93 242.2h16.3v10.1H10.16c0-2.72-.03-5.35.04-7.97 0-.38.45-.81.8-1.1 4.77-4.14 9.56-8.25 14.34-12.37.4-.34.76-.7 1.43-1.33h-1.52c-4.6 0-9.2-.02-13.8.02-.93 0-1.36-.18-1.33-1.24.07-2.68.04-5.36.02-8.04-.01-.7.18-1 .93-1 10.52.02 21.04.01 31.56.01.16 0 .31.04.66.1 0 1.62-.18 3.26.04 4.85.37 2.64-.68 4.3-2.71 5.92-4.56 3.64-8.9 7.55-13.33 11.34-.15.13-.35.21-.52.31l.16.4zm-13.64 7.03h1.13l23.26.02c2.5 0 2.42 0 2.52-2.45.06-1.27-.4-1.53-1.57-1.52-6.24.05-12.48.03-18.71.03h-1.38l-.09-.31.85-.77c6.3-5.41 12.56-10.88 18.94-16.2 1.47-1.23 2.1-2.46 1.97-4.36-.08-1.1-.42-1.3-1.4-1.29-5.64.04-11.28.02-16.92.02-2.51 0-5.03-.02-7.55.03-.36 0-1 .35-1.02.6-.1 1.08-.05 2.19-.05 3.4h21.58l.18.3c-.25.18-.52.33-.75.53-6.72 5.8-13.43 11.58-20.13 17.4-.36.3-.77.77-.82 1.2-.12 1.05-.04 2.13-.04 3.36zM43.2 335.16H10.25v-10.09H21.5v-9.11c-.4-.02-.83-.06-1.25-.06-3 0-6-.02-9 .02-.81 0-1.14-.24-1.13-1.1.04-2.71.06-5.43 0-8.15-.01-.9.37-1.07 1.15-1.06 2.96.02 5.92.01 8.88 0l21.24.01c.59 0 1.18.05 1.83.08v10.14H30.66V325H43.2v10.17zm-15.7-22.41h12.6v-3.9H13.38v3.94h11.24c.06.25.13.4.13.55 0 4.68 0 9.35.02 14.03 0 .78-.45.8-1.01.8h-10.4v3.88h26.82v-2.1c-.01-1.78-.01-1.78-1.73-1.78-3.16 0-6.32-.05-9.48.03-1.18.03-1.59-.26-1.56-1.52.08-4.28.03-8.56.03-12.84 0-.31.03-.62.06-1.09zM43.3 7.55c0 3.42-.17 6.54.05 9.63.16 2.27-.52 3.69-2.53 4.8a31.4 31.4 0 0 0-5.48 4.14h7.88v10.14h-32.9c-.05-.18-.15-.37-.15-.56.04-4.67-.23-9.37.21-14 .96-9.9 10.72-11.47 15.94-8.45.81.47 1.55 1.13 2.2 1.82.64.68 1.14 1.52 1.8 2.42L43.3 7.55zM13.07 33.09h27.09c0-.9-.05-1.7 0-2.49.1-1.07-.29-1.42-1.4-1.4-7.05.04-14.09.02-21.12.02h-2.01c0-1.77-.13-3.33.03-4.87.32-3.23 2.37-5.19 5.33-5.27 2.98-.1 5.2 1.8 5.72 5 .2 1.15.23 2.33.33 3.5.13-.02.23 0 .28-.04 4.1-2.86 8.2-5.72 12.27-8.6.24-.16.52-.48.53-.73.05-1.33.02-2.67.02-4.28l-11.67 8.94-.47-2.08c-.86-3.7-3.34-5.73-7.04-5.77-3.66-.04-6.69 2.06-7.2 5.74-.55 4.04-.48 8.17-.69 12.33zm10.63-7.03c.13-1.36.05-2.76-1.24-3.45a3.13 3.13 0 0 0-2.56.01c-1.27.69-1.23 2.07-1.08 3.44h4.89zM10.25 150.82h8.92v8.2c0 2.23.19 2.36 2.64 1.82v-9.5h8.92v9.59h3.6v-10.1h8.88v20.32H10.25v-20.33zm17.4 13.3c0-2.97-.06-5.72.03-8.47.04-1.16-.46-1.3-1.4-1.3-.96-.02-1.35.2-1.32 1.26.08 2.52.04 5.04 0 7.56-.01.31-.37.89-.57.9-2.75.05-5.5.03-8.36.03V154h-2.69v14c.3.04.53.08.77.08 8.35 0 16.71 0 25.07.02.95 0 1-.48 1-1.19-.02-3.64-.01-7.28-.01-10.92 0-2.24 0-2.24-2.25-2.07-.11 0-.21.1-.44.2v1.38c0 2.56.02 5.12-.02 7.68 0 .32-.36.9-.56.9-3.03.07-6.06.05-9.25.05zM24.3 183.31l-2.22 2.1c-3.09 2.9-3.91 7.23-1.97 10.33 2.23 3.56 7.4 4.73 10.88 2.47 3.59-2.33 4.48-7.44 1.87-11.11-.7-1-1.62-1.87-2.44-2.8l-1.1-1.17c.47-.07.72-.15.97-.15 3.52-.01 7.04 0 10.56-.03.63 0 1 .15 1.3.76 3.81 7.5 1.66 17.48-4.93 22.55-9.38 7.21-24.68 3.16-27.37-10.49a19.6 19.6 0 0 1 1.53-12.04c.13-.3.5-.71.77-.72 3.99-.04 7.97-.03 11.96-.03l.19.33zm11.84 2.81c2.3 6.01 1.4 10.87-2.49 14.04-3.53 2.87-8.93 3.12-12.91.57a9.66 9.66 0 0 1-4.06-4.9 11.7 11.7 0 0 1 .76-9.71c-1 0-1.84.05-2.67-.02-.78-.06-1.1.27-1.33.99a16.76 16.76 0 0 0-.68 7.1 14.01 14.01 0 0 0 18.3 11.78c7.31-2.32 10.77-9.5 9.52-17.23-.43-2.64-.52-2.63-3.15-2.62h-1.29zM29.21 347.03h9.68c3.17 0 3.18 0 4.2 3.02 2.34 6.84.3 16.98-7.75 21.48-10.01 5.59-23.4.44-25.53-12.1a19.85 19.85 0 0 1 1.53-11.57c.16-.35.65-.79.98-.8 3.88-.05 7.76-.02 11.63 0 .07 0 .13.06.48.28-1.1 1.01-2.2 1.91-3.15 2.95a7.85 7.85 0 0 0-1.67 8.35c1.15 3.31 4.75 5.17 8.68 4.58a7.27 7.27 0 0 0 6.05-6.77 8.37 8.37 0 0 0-2.49-6.63l-2.64-2.79zm-11.83 3.1c-1.04 0-1.95-.08-2.85.04-.37.04-.86.43-1 .78-2.16 5.48-.41 12.58 3.97 16.32a14.3 14.3 0 0 0 17.55.72c5.9-4.2 6.73-12.37 5-17.13-.1-.29-.42-.68-.66-.7-1.04-.07-2.1-.03-3.19-.03 2.1 6.73 1.06 11.59-3.02 14.37a11.37 11.37 0 0 1-13.5-.5c-3.32-2.66-5.05-8-2.3-13.87zM43.3 261.27v5.35c0 1.52.03 3.04-.04 4.55-.02.36-.35.88-.68 1.03-1.33.63-2.74 1.1-4.07 1.73-.36.17-.78.69-.79 1.06-.07 2.63-.08 5.27-.01 7.9 0 .42.44 1 .83 1.2 1.28.63 2.66 1.1 3.96 1.7.33.14.75.57.75.87.06 3.31.04 6.63.04 10.16-1.93-.77-3.73-1.47-5.5-2.2L12 283.94c-1.85-.77-1.86-.76-1.86-2.82 0-1.88.02-3.76-.02-5.64 0-.64.17-.99.8-1.24 10.41-4.18 20.8-8.4 31.2-12.6.32-.12.66-.21 1.16-.38zm-8.76 10.83c1.65-.66 3.22-1.26 4.76-1.92.32-.14.79-.46.8-.73.1-1.12.05-2.25.05-3.51-.5.15-.77.22-1.02.32-7.62 3.07-15.24 6.14-22.85 9.23-3 1.22-2.94 1.23-3.03 4.42-.02.94.32 1.3 1.13 1.64 7.79 3.18 15.56 6.4 23.34 9.6l2.42 1c0-1.17.07-2.17-.04-3.15a1.6 1.6 0 0 0-.75-1.1c-1.32-.63-2.72-1.12-4.06-1.74-.32-.15-.71-.6-.72-.9-.05-4.36-.03-8.71-.03-13.16zM9.5 63.93c.04-7.3 2.33-12.68 7.86-16.27 10.8-7.01 24.91-.23 26.43 12.62.63 5.38-.32 10.37-3.63 14.73A16.81 16.81 0 0 1 19.8 80C12.5 76.72 9.66 70.7 9.5 63.93zm31.4-.96c-.12-1.1-.17-2.23-.37-3.32-1.17-6.2-6.2-10.98-12.05-11.51-6.68-.61-12.27 2.63-14.7 8.6-1.22 3-1.42 6.14-.96 9.31.76 5.17 3.4 9 8.27 11.07 4.89 2.07 9.64 1.73 13.96-1.45 4.23-3.12 5.79-7.58 5.85-12.7zM34.37 98.73V89.3h8.85c.03.4.07.72.07 1.03 0 5.84-.02 11.68.02 17.52.01.97-.3 1.2-1.23 1.2-10.16-.03-20.32-.04-30.48 0-1.16.01-1.52-.3-1.48-1.47.09-2.52.07-5.04.01-7.56-.02-.98.28-1.3 1.29-1.3 7.12.04 14.24.02 21.36.02h1.6zm3.04-6.23v9.44H13.38v3.86h26.79v-1.62-9.83c0-2.19 0-2.19-2.19-2.01-.1.01-.22.06-.57.16zM43.2 138.8H10.23v-10.1h24.04v-9.52h8.91v19.62zm-5.74-16.5v9.5H14.43c-.47 0-1.13-.24-1.14.62-.02 1.06 0 2.12 0 3.2.44.04.72.1 1 .1h24.8c.84 0 1.1-.27 1.1-1.1-.04-3.79-.02-7.58-.03-11.38 0-.3-.08-.6-.12-.94h-2.58z"/><path d="M16.31 278.92c.53-.24.74-.35.96-.43l14.95-5.58v12.04l-15.9-6.03zm12.84-1.5l-4 1.5 4 1.49v-2.99zM37.55 63.26c0 6.3-4.52 10.97-10.64 10.99-6.39.02-11.06-4.65-11.05-11.03 0-6.34 4.67-11.06 10.9-11.05 6.32 0 10.8 4.6 10.8 11.09zm-3.11-.07c-.08-4.84-3.17-7.93-7.88-7.87-4.5.05-7.6 3.4-7.54 8.14a7.46 7.46 0 0 0 7.8 7.62c4.56-.05 7.69-3.3 7.62-7.9z"/></g><g id="chancellor-inner"><path d="M13.29 249.22c0-1.23-.08-2.3.04-3.37.05-.43.46-.88.82-1.2 6.7-5.8 13.41-11.6 20.13-17.39.23-.2.5-.35.75-.53l-.18-.3H13.27c0-1.21-.06-2.32.05-3.4.03-.25.66-.6 1.02-.6 2.52-.05 5.04-.03 7.56-.03 5.63 0 11.27.02 16.9-.02 1 0 1.34.18 1.41 1.3.14 1.9-.5 3.12-1.97 4.35-6.38 5.32-12.64 10.79-18.94 16.2-.3.25-.57.51-.85.77l.1.3h1.37c6.24 0 12.47.03 18.7-.02 1.17 0 1.64.25 1.58 1.52-.1 2.44-.03 2.45-2.52 2.45l-23.26-.03h-1.13zM27.5 312.75c-.04.47-.07.78-.07 1.09 0 4.28.05 8.56-.03 12.84-.03 1.25.38 1.54 1.56 1.52 3.16-.08 6.32-.03 9.48-.03 1.72 0 1.72 0 1.73 1.77v2.1H13.36v-3.87h10.39c.56 0 1.01-.02 1-.8v-14.03c0-.15-.08-.3-.14-.55H13.37v-3.95h26.74v3.91H27.49zM13.08 33.09c.21-4.16.14-8.29.7-12.33.5-3.68 3.53-5.78 7.19-5.74 3.7.04 6.18 2.07 7.04 5.77l.46 2.08 11.68-8.94c0 1.61.03 2.95-.02 4.28-.02.25-.29.57-.53.74-4.08 2.87-8.17 5.73-12.27 8.59-.05.04-.15.02-.28.04-.1-1.17-.14-2.35-.33-3.5-.52-3.2-2.74-5.1-5.72-5-2.96.08-5 2.04-5.33 5.27-.16 1.54-.03 3.1-.03 4.87h2c7.04 0 14.08.02 21.12-.03 1.12 0 1.5.34 1.42 1.41-.06.8-.01 1.6-.01 2.49H13.08z"/><path d="M23.71 26.06h-4.88c-.15-1.37-.19-2.75 1.08-3.44a3.13 3.13 0 0 1 2.56-.01c1.3.69 1.38 2.09 1.25 3.45zM27.65 164.12c3.19 0 6.22.02 9.25-.04.2 0 .55-.6.56-.91.04-2.56.02-5.12.03-7.68v-1.38c.22-.1.32-.2.43-.2 2.25-.17 2.25-.17 2.25 2.08v10.91c.01.71-.03 1.2-1 1.2-8.35-.04-16.7-.03-25.06-.03-.24 0-.47-.04-.77-.07v-14.01h2.7v10.11c2.86 0 5.6.02 8.35-.04.2 0 .56-.58.57-.9.04-2.51.08-5.03 0-7.55-.03-1.05.36-1.28 1.31-1.26.95 0 1.45.14 1.41 1.3-.1 2.75-.03 5.5-.03 8.47zM36.14 186.12h1.3c2.63 0 2.7-.02 3.14 2.62 1.25 7.73-2.2 14.91-9.52 17.23a14.01 14.01 0 0 1-18.3-11.79c-.3-2.42-.04-4.77.68-7.09.23-.72.55-1.05 1.33-.99.83.07 1.67.02 2.67.02a11.7 11.7 0 0 0-.76 9.71 9.65 9.65 0 0 0 4.06 4.9c3.98 2.55 9.38 2.3 12.91-.57 3.89-3.17 4.79-8.03 2.5-14.04zM17.38 350.13c-2.75 5.87-1.02 11.2 2.3 13.87a11.37 11.37 0 0 0 13.5.5c4.08-2.78 5.13-7.64 3.02-14.37 1.1 0 2.15-.04 3.19.04.24.01.56.4.67.69 1.72 4.76.89 12.93-5 17.13a14.3 14.3 0 0 1-17.55-.72c-4.4-3.74-6.14-10.84-3.98-16.32.14-.35.63-.74 1-.78.9-.12 1.81-.04 2.85-.04zM34.54 272.1c0 4.45-.02 8.8.03 13.15 0 .32.4.76.72.9 1.34.63 2.74 1.12 4.06 1.76.36.17.71.7.75 1.1.11.97.04 1.97.04 3.14l-2.42-.99c-7.78-3.21-15.55-6.43-23.34-9.61-.81-.34-1.16-.7-1.13-1.64.09-3.19.04-3.2 3.03-4.42 7.61-3.09 15.23-6.16 22.85-9.23.25-.1.52-.17 1.02-.32 0 1.26.05 2.4-.04 3.51-.02.27-.49.6-.81.73-1.54.66-3.1 1.26-4.76 1.92zm-18.23 6.82l15.9 6.03v-12.03l-14.94 5.57c-.22.08-.43.2-.96.43zM40.9 62.97c-.06 5.13-1.62 9.58-5.85 12.7-4.32 3.18-9.07 3.52-13.96 1.45-4.87-2.07-7.51-5.9-8.27-11.07-.46-3.17-.26-6.31.96-9.3 2.43-5.98 8.02-9.22 14.7-8.61 5.85.53 10.88 5.32 12.04 11.5.21 1.1.26 2.22.38 3.33zm-3.35.29c0-6.49-4.47-11.08-10.78-11.1-6.24 0-10.9 4.72-10.91 11.06-.01 6.38 4.66 11.05 11.04 11.03 6.13-.02 10.65-4.7 10.65-10.99zM37.41 92.5c.35-.1.46-.15.58-.16 2.18-.18 2.18-.18 2.18 2.01v11.45h-26.8v-3.86h24.04V92.5zM37.46 122.3h2.57c.05.34.13.64.13.94.01 3.8-.01 7.6.02 11.39 0 .82-.25 1.1-1.09 1.1-8.27-.02-16.54-.01-24.8-.01-.28 0-.56-.06-1-.1 0-1.08-.02-2.14 0-3.2 0-.86.67-.62 1.14-.62H37.46v-9.5z"/><path d="M29.15 277.42v2.99l-4-1.48 4-1.5zM34.44 63.19c.07 4.6-3.06 7.84-7.63 7.9a7.46 7.46 0 0 1-7.79-7.63c-.06-4.74 3.04-8.09 7.54-8.14 4.71-.06 7.8 3.03 7.88 7.87z"/></g></g></svg>