<svg id="Layer_1_xA0_Image_1_" xmlns="http://www.w3.org/2000/svg" width="126.48" height="124.56"><g fill-rule="evenodd" clip-rule="evenodd"><path d="M2.16 124.8c1.36-3.88 2.62-7.8 4.11-11.63a33.96 33.96 0 0 1 7.87-11.78C25.1 90.46 36.04 79.5 46.99 68.57c.6-.6.79-1.1.66-1.98a14.2 14.2 0 0 1 1.8-9.7l-4.27-4.25c.56 3.73-.75 7.04-1.74 10.42-.47 1.61-1.88 2.32-3.23 1.66-.4-.2-.9-.54-1.04-.93-1.1-2.99-2.34-5.95-3.11-9.02-.77-3.04-.05-6.04 1.42-8.8.34-.65.3-1.03-.22-1.54-1.33-1.26-2.6-2.6-3.88-3.9-.14.14-.25.2-.24.24.42 3.61-.83 6.94-1.8 10.3-.28.95-.9 1.6-1.95 1.73-.95.11-1.87-.12-2.25-1.01-1.52-3.5-3.34-6.92-3.39-10.9-.02-2.49.43-4.85 1.64-7.03.37-.66.27-1.03-.23-1.53-1.12-1.12-2.16-2.3-3.24-3.46l-.45.24c0 1.21.2 2.47-.04 3.64-.46 2.3-1.15 4.56-1.78 6.83-.27.99-1 1.53-2 1.64-.97.1-1.84-.28-2.2-1.15-1.26-3.01-2.8-5.93-3.2-9.24a14.7 14.7 0 0 1 1.9-9.35L.5 7.85l3.4-3.24 13.53 13.54c2.91-1.76 5.99-2.51 9.18-2 2.22.37 4.36 1.22 6.52 1.9.9.29 1.78.7 2.66 1.07 1.03.44 1.61 1.23 1.55 2.34-.07 1.1-.72 1.84-1.8 2.15-3.3.93-6.53 2.2-10.07 1.8-.1-.01-.2.06-.58.2 1.37 1.31 2.61 2.54 3.9 3.7.19.17.68.18.92.05 4.56-2.38 9.14-2.19 13.77-.23 1.36.57 2.75 1.08 4.1 1.69.9.41 1.4 1.16 1.36 2.2-.03 1.04-.54 1.83-1.5 2.09-2.7.72-5.41 1.37-8.14 1.96-.8.17-1.66.02-2.1.02l4.25 4.28c1.73-.46 3.73-1.12 5.79-1.52 2.32-.44 4.62.02 6.83.8 1.8.65 3.56 1.42 5.34 2.14 1.07.43 1.7 1.2 1.62 2.4-.07 1.18-.79 1.86-1.9 2.17-3.37.93-6.65 2.27-10.3 1.7l-.13.37c1.26 1.2 2.5 2.42 3.8 3.59.18.17.68.19.92.06a14.98 14.98 0 0 1 9.77-1.5c.33.06.82-.08 1.06-.31 7.42-7.4 14.81-14.83 22.21-22.25.03-.02.03-.07.09-.2l-3.41-1.94 5.04-7.92 5.96 3.06c1.72.89 1.72.9 3.05-.44 3.99-3.99 7.94-8.01 11.98-11.95a22.28 22.28 0 0 0 4.35-5.66c.62-1.2 1.35-2.34 1.98-3.42l10.87 10.88c-1.82 1.08-3.77 2.2-5.7 3.38a8.1 8.1 0 0 0-1.52 1.16c-4.73 4.7-9.43 9.46-14.2 14.14-.78.77-.8 1.32-.3 2.23 1.16 2.08 2.2 4.23 3.33 6.41l-7.92 5.05-1.9-3.33-22.98 22.99 7.9 3.03c1.02.39 1.66 1.09 1.66 2.24 0 1.25-.68 1.99-1.86 2.32-3.36.95-6.66 2.29-10.66 1.7 1.66 1.66 3.05 3.07 4.47 4.44.15.13.6.06.85-.06 4.19-2.1 8.39-1.95 12.62-.14 1.14.5 2.29.95 3.44 1.4 1.13.42 1.85 1.18 1.8 2.4-.07 1.22-.81 1.93-2 2.25-2.91.8-5.76 1.96-9.04 1.85.85.85 1.78 1.64 2.53 2.57 1.5 1.87 2.93 2.8 5.54 1.58 2.3-1.08 4.95-.65 7.4.21 1.53.55 3.04 1.19 4.56 1.8 1.02.41 1.65 1.17 1.61 2.29-.03 1.17-.7 1.94-1.83 2.23-2.38.63-4.77 1.23-7.29 1.87 1.72 1.31 2.78 3.41 5.16 4.22a22 22 0 0 1 12.22 10.07c1.31 2.24 2.49 4.56 3.7 6.85.57 1.06.54 2.1-.35 2.97-.86.83-1.88.83-2.89.3-2.33-1.23-4.69-2.42-6.96-3.76a21.98 21.98 0 0 1-9.84-11.82 8.24 8.24 0 0 0-2.24-3.44c-.76-.7-1.41-1.5-2.12-2.27l-1.7 7.02c-.3 1.2-.88 2.16-2.26 2.3-1.19.1-2.01-.51-2.6-2.04-.94-2.41-2.16-4.73-2.3-7.4-.11-2.2.19-4.3 1.14-6.3.14-.3.21-.85.04-1.03a82.67 82.67 0 0 0-4.91-4.81c.1 3.1-.91 5.91-1.76 8.76-.44 1.48-1.16 2.21-2.3 2.23-1.3.02-2.04-.76-2.45-1.92-.83-2.32-1.84-4.6-2.43-7-.73-2.98-.3-5.96 1.15-8.72.34-.64.3-1.04-.23-1.54-1.28-1.25-2.5-2.56-3.9-3.78.41 3.65-.89 6.9-1.8 10.2-.34 1.22-.99 2.04-2.28 2.1-1.3.07-2.04-.72-2.47-1.88-1-2.68-2.02-5.35-3.07-8.1-.23.22-.57.52-.9.85-10.95 10.94-21.91 21.87-32.82 32.85a38.44 38.44 0 0 1-14.78 9.31c-2.85 1-5.68 2.09-8.53 3.14h-.24zm11.34-13.7l78.79-79.18-2.48-1.36c-.32.42-.58.88-.94 1.25C65.2 55.49 41.56 79.18 17.84 102.8c-4.26 4.23-7.5 9-9.35 14.7-.12.36-.2.73-.32 1.17.3-.05.46-.06.6-.1A35.08 35.08 0 0 0 22.89 110c23.94-23.97 47.9-47.91 71.85-71.86 1.45-1.45 1.45-1.45.32-3.21-.03-.05-.13-.06-.2-.09l-.24-.24-78.49 78.92-2.62-2.43zm74.78-85.52c2.46 1.34 4.8 2.55 7.06 3.88a5.36 5.36 0 0 1 1.8 1.78c1.46 2.42 2.8 4.9 4.22 7.44l1.78-1.23A23.55 23.55 0 0 0 89.43 23.8l-1.15 1.79zM116.3 6.4l-.94 1.67c.91.84 1.83 1.66 2.72 2.5 1.11 1.09 1.25 1.1 2.31-.02l-4.1-4.15z"/><g id="decal-background" fill="#fff"><path d="M13.5 111.1l2.62 2.43L94.61 34.6l.25.24c.06.03.16.04.2.1 1.12 1.75 1.12 1.75-.33 3.2C70.78 62.1 46.82 86.05 22.89 110a35.1 35.1 0 0 1-14.11 8.55c-.15.05-.3.06-.61.1.12-.43.2-.8.32-1.15 1.85-5.7 5.1-10.48 9.35-14.71 23.72-23.62 47.36-47.31 71.02-71 .37-.36.63-.82.95-1.24l2.48 1.36-78.8 79.18zM88.28 25.57l1.15-1.78a23.54 23.54 0 0 1 13.7 13.67l-1.77 1.22c-1.43-2.54-2.76-5.02-4.22-7.44a5.35 5.35 0 0 0-1.8-1.78c-2.27-1.33-4.6-2.54-7.06-3.89zM116.3 6.4l4.09 4.15c-1.06 1.11-1.2 1.1-2.31.03-.89-.85-1.8-1.67-2.72-2.5l.94-1.68z"/></g></g></svg>