<svg id="Layer_1_xA0_Image_1_" xmlns="http://www.w3.org/2000/svg" width="44.88" height="28.32" viewBox="0 0 44.88 28.32"><g fill-rule="evenodd" clip-rule="evenodd"><path d="M45.12 8.88c-.62 1.54-1.14 3.13-1.9 4.6-.5.97-1.32 1.76-1.96 2.58-.27-.1-.38-.11-.39-.15-.76-3.2-3.11-4.8-5.95-5.86-4.6-1.7-9.41-1.98-14.26-1.79-3.2.13-6.36.49-9.4 1.57-.78.27-1.56.6-2.3.98-2.14 1.12-3.77 2.69-4.26 5.4-.47-.39-.9-.64-1.22-1a13.06 13.06 0 0 1-2.94-5.8c-.26-1.08.08-2.12 1.1-2.55 1.25-.53 2.63-1.1 3.95-1.08 3.13.05 5.98-.64 8.7-2.16 1.48-.83 3.07-1.51 4.61-2.25a8.66 8.66 0 0 1 7.94.05c2.04 1 4.12 1.93 6.12 3 1.67.9 3.42 1.25 5.3 1.22.9-.02 1.83.04 2.74.15 1.78.2 3.3.88 4.12 2.6v.49zM6.38 22.84c3.26.53 6.3-.66 9.38-1.28a36.33 36.33 0 0 1 15.64.4c1.55.36 3.13.57 4.68.91 1.4.3 2.68.08 3.89-.78.38 1.4-.5 2.22-1.46 2.7-1.8.91-3.64 1.83-5.58 2.35a36.57 36.57 0 0 1-21.98-.77c-1.11-.4-2.18-.98-3.18-1.62-.63-.4-1.08-1.07-1.62-1.63a57 57 0 0 0 .23-.28z"/><path d="M38.6 16.23c-3.74.68-7.37 1.32-11 2.02-4.48.87-8.89.33-13.29-.59-2.4-.5-4.83-.93-7.34-1.4-.04-1.1.68-1.92 1.57-2.63 2.06-1.66 4.54-2.3 7.06-2.71 5.73-.92 11.46-.96 17.08.67 1.64.47 3.18 1.42 4.65 2.33.82.51 1.39 1.41 1.27 2.3zm-15.96-4.3a2.64 2.64 0 0 0-2.66 2.65 2.7 2.7 0 0 0 2.63 2.6 2.6 2.6 0 0 0 2.62-2.69 2.55 2.55 0 0 0-2.6-2.57zM31.7 19.52c1.91-.27 3.82-.56 5.73-.8.72-.1 1.15.25 1.15 1 0 .77-.37 1.24-1.17 1.12-1.92-.27-3.83-.59-5.74-.89l.03-.43zM7.13 18.55l6.46 1v.29l-2.4.54c-.86.17-1.72.37-2.58.45-1.85.18-2.1-.15-1.47-2.28z"/><path id="background" d="M22.64 11.92a2.55 2.55 0 0 1 2.59 2.57 2.6 2.6 0 0 1-2.62 2.69 2.7 2.7 0 0 1-2.63-2.6 2.64 2.64 0 0 1 2.66-2.66z" fill="#fff"/></g></svg>