<svg id="Layer_1_xA0_Image_1_" xmlns="http://www.w3.org/2000/svg" width="41.04" height="41.04" viewBox="0 0 41.04 41.04"><g fill-rule="evenodd" clip-rule="evenodd"><path d="M25.83 10.97l4.8 4.8c-1.08.98-2.22 1.92-3.21 3-.41.43-.7 1.16-.7 1.75 0 .92-.29 1.55-.93 2.2-4.63 4.58-9.23 9.2-13.83 13.8-.31.32-.53.71-.7.96l-7.1-7.09c.14-.16.43-.48.73-.78 4.66-4.66 9.34-9.32 13.98-14 .61-.62 1.2-.87 2.1-.87.66 0 1.44-.35 1.96-.8 1.03-.88 1.9-1.93 2.9-2.97zM31.69 14.29l-4.46-4.52c2.23-2.45 4.7-4.8 7.72-6.48 1.6-.89 3.23-1.72 4.87-2.54.28-.14.66-.07.99-.09-.01.33.09.7-.04.97-2.2 4.79-4.86 9.25-9.08 12.66zM9.46 38.66l-2 2.07-6.78-6.78 2.18-1.86 6.6 6.57z"/></g></svg>