<svg class="text-fascist" xmlns="http://www.w3.org/2000/svg" width="92.88" height="24.96" viewBox="0 0 92.88 24.96"><path d="M1.66 22.54h4.1V13.9h5.04v-3.34H5.75V6.54l4.78.67 2.49-3.55-8.5-1.26-2.86 4.09zM26.4 18.7V6.57l-1.46-2.93-6.33-1.25-3.25 4.54v5.77h-1.94v3.34h1.94v6.49h4.07v-6.46h2.87v5.6l4.19 1.58 2.28-3.38-2.38-1.19zm-4.04-6.02h-2.94V6.9l2.94.56v5.22z"/><path fill="none" d="M19.42 12.68h2.94V7.46l-2.94-.56z"/><path d="M29.6 22.2l7.43.96 3.2-3.7v-6.81L34.58 9.5V6.72l4.23.72 2.16-3.8-6.52-1.02-3.27 3.15-.45 2.49-.01 4.07L36.69 16l.02 3.05-5.52-.84zM65.83 22.53l7.43.97 3.2-3.7v-6.81L70.8 9.85V7.06l4.24.72 2.16-3.8-6.52-1.02L67.4 6.1l-.45 2.49-.02 4.07 5.99 3.67.02 3.05-5.52-.84zM52.81 23.24l1.74-3.9s-5.75-.58-6.06-.66c-1.13-3.02-1.61-10.2-.27-11.72l4.52.72 2.12-3.83s-3.47-.97-6.2-.89c-8.5 1.63-5.25 15.22-3.49 19.44l7.64.84zM58.8 23.04h4.06V4.11l-4.5-1.28-2.42 3.48 2.83.75zM83.03 23.24h4.08V7.43h3.58l1.4-3.6-12.21-.23-1.42 3.81 4.54.03z"/></svg>