<svg id="Background_copy_xA0_Image_1_" xmlns="http://www.w3.org/2000/svg" width="125.76" height="32.88"><path d="M4.55 30.46h6.48V19.44h4.56v9.54l.96.04 5.08 1.9 3.33-4.71-3.33-1.5V3.83h-6.1v10.3h-4.36V5.19L4.65 3.1 1.3 8.36s3 .98 3.2 1.5.05 20.6.05 20.6zM31.42 30.19h5.75V4.73l-6.6-1.62L27 8.23s4.46.65 4.46 1.52l-.04 20.44zM48.24 30.22h6V9.36h4.52l2.43-5.5H43.94l-1.72 5.49h5.99zM68.29 29.75l10.14.47 1.97-5.48-8.16-.5V4.57L66.9 3.3 63.1 8.46l3.31.92V27.1zM99.59 24.71l-8.9-.5v-5.25h6v-5.02h-6l.17-4.13 6.75.53 1.98-2.98.67-2.77L88.2 2.94 84.7 8.69v18.23l1.92 2.83 10.46.69zM120.8 24.42l-2.82-7.9 2.67-1.93.06-3.44-1.98-7.07-13.35-1-3.19 5.8 3.94.43.15 20.9h5.98v-8.88l2.72.2.44 7.51 5.3 1.53 3.54-5.3-3.46-.85zM112 13.56l-.21-3.71h2.18l.38 3.72H112z" /><path fill="none" d="M111.79 9.85l.21 3.71h2.35l-.38-3.71z"/></svg>