<svg id="Layer_1_xA0_Image_1_" xmlns="http://www.w3.org/2000/svg" width="43.2" height="43.2" viewBox="0 0 43.2 43.2"><g fill-rule="evenodd" clip-rule="evenodd"><path d="M.68 9.45C2.16 3.68 7.14.16 13.33.51c5.15.29 9.84 4.75 10.62 10.11.45 3.11-.3 5.88-2.54 9.24l2.7 2.26c.36.13.56-.46 1.1-.7l6.95 6.38 9.73 8.9c1.56 1.44 1.72 3.6.38 5.14-1.4 1.62-3.53 1.73-5.23.35-1.93-1.57-3.48-3.51-5.19-5.3-3.25-3.42-6.44-6.9-9.66-10.34l-1.04-1.15 1.14-1.25-2.68-2.53a12.13 12.13 0 0 1-7.54 2.58C6.3 24.2 1.37 19.9.5 14.1.25 12.2.7 9.45.7 9.45zM21.7 12.3a9.4 9.4 0 0 0-9.5-9.47 9.52 9.52 0 0 0-9.56 9.46 9.6 9.6 0 0 0 9.6 9.57 9.5 9.5 0 0 0 9.46-9.56z"/><path d="M12.1 18.78a6.23 6.23 0 0 1-6.34-6.24 6.35 6.35 0 0 1 6.37-6.5c3.46.02 6.31 2.88 6.32 6.34a6.3 6.3 0 0 1-6.34 6.4zm.01-3.63a2.77 2.77 0 0 0 2.75-2.73 2.82 2.82 0 0 0-2.8-2.71 2.78 2.78 0 0 0-2.72 2.75 2.72 2.72 0 0 0 2.77 2.69z"/><g id="background" fill="#fff"><path d="M21.7 12.3a9.5 9.5 0 0 1-9.47 9.56 9.6 9.6 0 0 1-9.6-9.57 9.52 9.52 0 0 1 9.56-9.46 9.4 9.4 0 0 1 9.5 9.47zm-9.6 6.48a6.3 6.3 0 0 0 6.35-6.4 6.42 6.42 0 0 0-6.32-6.35 6.35 6.35 0 0 0-6.37 6.51 6.23 6.23 0 0 0 6.35 6.24z"/><path d="M12.11 15.15a2.72 2.72 0 0 1-2.77-2.69 2.78 2.78 0 0 1 2.73-2.76 2.82 2.82 0 0 1 2.8 2.72 2.77 2.77 0 0 1-2.76 2.73z"/></g></g></svg>