<svg id="ja_xA0_Image_1_" xmlns="http://www.w3.org/2000/svg" width="118.56" height="134.64"><path d="M85.8 71.95c.06.94.52 1.62.86 2.33 1.22 2.56 2.84 4.9 4.16 7.41.33.64.64 1.29.95 1.94.27.55.19 1.05-.16 1.57-.81 1.18-1.9 2.06-3.05 2.85a25.4 25.4 0 0 1-12.14 4.37c-2.56.25-5.1.23-7.66-.04a17.36 17.36 0 0 1-7.69-2.78c-3.8-2.47-7.2-5.29-9.49-9.3-.85-1.5-1.49-3.1-2.29-4.61-.37-.7-.7-1.44-1.19-2.08-.94-1.26-2.1-1.6-3.43-.78-1.63 1-3.21 2.1-4.02 3.97-.13.3-.35.54-.51.81-.85 1.44-1.23 2.93-.7 4.58.38 1.18.71 2.37.96 3.58a6.9 6.9 0 0 1-.29 3.78c-.45 1.28-1.4 1.9-2.75 1.87-1.53-.04-2.25-.93-1.99-2.45.12-.67.23-1.34.43-1.99.36-1.2.2-2.34-.18-3.52-.88-2.7-2.1-5.25-3.31-7.82-.68-1.44-1.35-2.9-2.13-4.3a2.1 2.1 0 0 1-.03-2.14c.17-.32.33-.64.53-.94 2.09-3.2 4.53-6.1 7.57-8.43a8.09 8.09 0 0 1 5.11-1.73c12.04.04 24.08-.01 36.12.05a9.8 9.8 0 0 0 5.22-1.42l.82-.48c.63.1.98.58 1.33.99a40.43 40.43 0 0 1 4.91 7.21c.17.32.28.67.43 1 .34.76.22 1.45-.25 2.14a8.16 8.16 0 0 1-2.82 2.54c-1.07.6-2.16 1.19-3.32 1.82zM53.5 73.2a6.34 6.34 0 0 0 1.68 2.7 16.95 16.95 0 0 0 5.71 3.64c2.26.94 4.6 1.35 7.03 1.04 3.26-.42 6.4-1.36 9.44-2.58 1.03-.42 2.02-.96 2.88-1.7.8-.69 1.18-1.5.75-2.55-.1-.26-.05-.57-.4-.91M108.23 109.66c-.86-.74-1.6-1.4-2.37-2.02a12.45 12.45 0 0 0-5.19-2.62 7.94 7.94 0 0 0-3.55.19 8.52 8.52 0 0 0-5.76 4.31c-.8 1.39-1.61 2.75-2.4 4.08-.5.18-.94.1-1.38.1-14.4 0-28.8.01-43.19-.02-1.68 0-3.14.46-4.48 1.4l-1.1.76c-1.36.02-2.19-.7-2.95-1.63a149.7 149.7 0 0 1-5.5-7.1c-.24-.33-.4-.7-.63-1.03-.58-.87-.37-1.65.26-2.4a6.89 6.89 0 0 1 2.41-1.75 44.87 44.87 0 0 1 12.3-3.8c.83-.12 1.68-.12 2.52-.12 13.12 0 26.24-.03 39.36.02 2.23.01 4.33-.62 6.5-.92 3.53-.5 6.93-.21 9.98 1.91 1.56 1.09 2.5 2.68 3.37 4.3.58 1.05 1.07 2.14 1.58 3.22.45.96.19 1.96.22 3.12zM7.78 33.37c.55-.26 1.07-.34 1.65.08 3.24 2.32 6.92 2.98 10.8 2.77 1.72-.1 3.43-.27 5.14-.37 3.23-.2 6.47-.36 9.7-.57 4.26-.27 8.52-.62 12.8-.82 2.3-.1 4.6-.5 6.93-.2 4.25.57 8.24 1.82 11.79 4.33a78.2 78.2 0 0 1 9.35 7.47c.72.7 1.4 1.43 1.85 2.33.6 1.21.1 2.4-1.09 2.67-.48.1-.87-.11-1.25-.29a21.18 21.18 0 0 0-11.66-1.96c-3.66.36-7.3.84-10.94 1.32-3.6.48-7.2.98-10.82 1.33-3.5.33-7.02.55-10.54.43-2.64-.1-5.08-.98-7.43-2.13-3.59-1.75-6.69-4.18-9.63-6.85-1.93-1.74-3.67-3.67-5.5-5.5a4 4 0 0 1-1.15-4.04zM81.42 29.52c1.16.03 2.19.49 3.12 1.1a22.02 22.02 0 0 1 6.33 6.45c.34.54.6 1.13.82 1.73a3.47 3.47 0 0 1-.48 3.5c-.97 1.28-2.1 2.4-3.35 3.4a3.3 3.3 0 0 1-4 .34c-.7-.4-1.36-.84-1.98-1.34a34.3 34.3 0 0 1-6.31-6.36c-.26-.35-.47-.74-.68-1.12-.57-1.02-.44-2 .21-2.92a16.28 16.28 0 0 1 4.83-4.4c.45-.29.95-.42 1.5-.38zM19.36 99.3c.56-.16.98-.22 1.37.23 1.83 2.12 3.72 4.19 4.92 6.76 1.67 3.57.55 7.5-1.59 10.09-.26.31-.6.5-.95.7-.52.3-.97.29-1.43-.1-1.54-1.34-3.19-2.55-4.5-4.12-.24-.28-.46-.56-.66-.86-.99-1.44-1.02-1.85.3-3.03 1.91-1.72 2.15-4.01 2.38-6.32.11-1.11.1-2.23.16-3.35zM103.23 61.67c-.24.58-.54.98-.47 1.5.07.43.24.77.7.85.43.08.67-.17.82-.54.2-.48.37-.96.58-1.44.48-1.06 1.13-1.51 2.1-1.47 1.2.05 2.1.7 2.43 1.78a3.6 3.6 0 0 1-.94 3.8c-.45-.18-.8-.46-1.11-.8.02-.42.38-.62.52-.94.2-.46.27-.92.06-1.39a.98.98 0 0 0-.83-.6c-.35-.03-.61.18-.75.49-.23.5-.41 1.04-.63 1.55-.42 1-1.02 1.45-2 1.4-.98-.06-1.76-.49-2.16-1.44-.5-1.21-.23-2.32.45-3.37.56-.03.76.45 1.23.63zM104.47 72.38c.34-.82-.02-1.6.25-2.33.36-.26.76-.17 1.2-.14.3.75-.02 1.57.22 2.38.54.3 1.1.16 1.67.1.35-.84 0-1.68.27-2.44.38-.25.76-.17 1.24-.04v4.18h-7.72c-.18-1.36-.07-2.73-.06-4.06.43-.35.82-.21 1.24-.17.36.8-.03 1.66.26 2.5.46.16.92.13 1.43.02zM101.52 84.94v-1.32c.01-.24.05-.47.07-.72l2.35-1.6c-.55-.38-.98-.75-1.46-.98-.8-.39-1.1-.97-.96-1.83.03-.2.03-.4.05-.67 1.12.5 2.05 1.17 2.97 1.85.78.58 1.58.86 2.55.78.71-.07 1.43-.02 2.14-.02.3.56.15 1.05.12 1.58a8.3 8.3 0 0 1-2.54.19 3.04 3.04 0 0 0-2.11.65c-.97.7-1.99 1.31-3.18 2.1zM100.7 89.38c.12-.5.3-.75.56-1.05a14.6 14.6 0 0 0 4.82 1c1.67-.02 3.23-.4 4.75-1 .41.2.56.56.7 1.02a11.95 11.95 0 0 1-10.84.03zM111.48 55.8c-.1.35-.28.65-.56.94a11.72 11.72 0 0 0-9.55-.01c-.1-.05-.14-.06-.17-.09-.25-.22-.36-.52-.48-.8.96-1.82 8.19-1.84 10.76-.04z"/></svg>