<svg id="liberal_xA0_Image_1_" xmlns="http://www.w3.org/2000/svg" width="102.48" height="28.56"><path d="M13.66 23.74l1.5-3.88-6.07-.45.21-14.88L5.16 3.3 2.78 6.8l2.31.83-.08 13.48 1.48 2.15zM18.22 23.74h4.08l.21-18.86-4.67-1.41-2.43 3.37 2.9.92zM36.34 12.9l2.03-1.77-.2-2.54-1.66-4.04-5.12-.2-3.6-1.05-2.38 3.52 2.64.86-.23 11.58-1.18-.25-1.92 3.69 10.48 1.29 3.16-3.4.23-6.16-2.25-1.53zm-2.96-4.75l.88 1.6v.97l-2.04 1.52-.13-4.09h1.29zm1.38 11.71L32 19.72v-5l2.77 1.87v3.27z"/><path fill="none" d="M31.99 19.72l2.77.14V16.6L32 14.72zM34.26 10.72v-.96l-.88-1.6h-1.29l.13 4.08z"/><path d="M43.8 23.7l7.75.52 1.46-3.84-6.5-.52v-4.5h4.6l-.02-3.33h-4.56l.04-4.08 4.9.95 2.31-3.87-8.87-1.25-2.44 4.13v13.56zM67.16 20.34l-2.19-6.06 2.5-2.2-.04-3.24-1.07-3.87-10.08-1.02-1.85 3.58 2.64.46.02 16.23h4.1v-7.6l2.88 6.89 3.84.96 1.87-3.32-2.62-.8zm-5.96-7V8.36h1.79l.56 3.09-2.35 1.9z"/><path fill="none" d="M61.2 8.36v4.98l2.35-1.9L63 8.37z"/><g><path d="M84.13 20.56V8.2l-1.69-2.9-6.31-1.24-2.98 4.49v5.8l-2.11.04v3.34l1.87.05.05 6.45h4.06l.08-6.48h3.05v5.73l3.89 1.43 2.47-3.3-2.38-1.05zm-3.98-6.17l-2.88.19V8.36l2.88.78v5.25z" /><path fill="none" d="M77.27 14.58l2.88-.2V9.15l-2.88-.78z"/></g><path d="M98.35 24.66l1.5-4.02-6.06-.3.03-14.87-4.05-1.16-2.4 3.58 2.37.8v13.59l1.19 1.94z"/></svg>