<svg id="Layer_1" xmlns="http://www.w3.org/2000/svg" viewBox="0 0 351.68 243.299">
  <g fill-rule="evenodd" clip-rule="evenodd">
    <g id="shadow">
      <path
        d="M0 163.801l.015-1.439c.579-.027.631-.568.835-.914 2.547-4.342 5.07-8.697 7.604-13.047.701-1.205 1.416-2.402 2.137-3.625 3.643.332 7.24.658 10.838.984.025-.084.051-.168.075-.254-3.438-1.34-6.884-2.658-10.31-4.029-3.479-1.391-6.935-2.834-10.531-4.309l6.858-19.865 16.465-1.629.025-2.551c-6.243-2.457-12.435-4.896-18.542-7.301-.086-1.206-.217-2.238-.221-3.271-.016-3.712.006-7.424.027-11.136.018-3.128.419-6.217 1.147-9.253.286-1.191.64-2.416 1.231-3.475 2.828-5.064 6.676-9.34 10.663-13.5.494-.516 1.075-.654 1.706-.729 6.893-.814 13.791-1.592 20.68-2.449 1.404-.175 2.666-.046 3.894.656.622.356 1.297.621 1.954.914 1.338.598 2.681 1.186 4.092 1.81.363-.663.697-1.249 1.01-1.845 1.375-2.617 2.754-5.233 4.107-7.861.248-.48.554-.677 1.104-.739 2.934-.326 5.86-.712 8.791-1.067 7.208-.873 14.416-1.748 21.627-2.591.485-.057 1.041.048 1.496.24 1.838.777 3.648 1.623 5.473 2.433.716.318 1.443.611 2.176.919l.496-.677a58.552 58.552 0 0 1 10.744-11.214c.416-.333.955-.627 1.472-.702 2.485-.359 4.982-.638 7.476-.942 3.802-.464 7.611-.87 11.401-1.417 1.661-.24 3.204-.272 4.743.524.98.507 2.063.815 3.18 1.244.232-.436.424-.777.599-1.127.949-1.895 1.898-3.789 2.839-5.687.238-.482.5-.837 1.117-.939 3.545-.584 7.081-1.221 10.621-1.832 7.592-1.31 15.187-2.6 22.772-3.943.872-.154 1.629-.101 2.438.231 5.102 2.09 10.215 4.152 15.326 6.217.248.101.519.146.791.22.12-.177.222-.3.294-.438 2.598-4.953 5.216-9.895 7.766-14.873.442-.864 1.004-1.197 1.923-1.3 4.599-.512 9.191-1.071 13.784-1.624 5.386-.648 10.771-1.298 16.154-1.975.678-.085 1.251.014 1.818.383.625.408 1.283.764 1.991 1.181.15-.326.265-.529.34-.746.422-1.207.869-2.407 1.235-3.631.216-.724.576-1.096 1.351-1.287 6.051-1.492 12.087-3.042 18.13-4.565 7.281-1.835 14.565-3.66 21.846-5.499.418-.106.812-.305 1.217-.461l2.16.021c.367.213.716.472 1.105.63 1.887.766 3.784 1.504 5.678 2.254l23.627 9.355c12.333 4.885 24.666 9.771 36.998 14.661.25.099.479.252.78.414-.105.38-.184.725-.296 1.058-1.879 5.565-3.777 11.124-5.625 16.7-.238.719-.64.994-1.322 1.159a611.039 611.039 0 0 0-8.604 2.159c-1.015.26-1.012.283-1.033 1.274-.037 1.757-.079 3.515-.103 5.273-.094 7.155-.198 14.31-.267 21.465-.058 6.035-.061 12.071-.11 18.106-.014 1.755-.103 3.51-.168 5.265-.006.148-.092.294-.143.448-1.846.479-3.663.945-5.476 1.425-1.77.469-3.578.81-5.545 1.482.479.231.686.347.903.434 4.533 1.792 9.064 3.589 13.605 5.36.48.187.834.41 1.015.908.628 1.729 1.346 3.427 1.898 5.178 2.154 6.82 3.004 13.785 2.215 20.927-.071.644-.248 1.125-.708 1.563-1.389 1.321-2.753 2.67-4.131 4.004-.424.408-.863.8-1.286 1.193 1.245 3.861 2.476 7.617 3.658 11.391.211.67.629.949 1.231 1.152 2.271.77 4.529 1.572 6.798 2.35 1.508.516 3.022 1.008 4.534 1.512l-.004.48c-.066.039-.16.061-.194.119-1.529 2.621-3.048 5.25-4.581 7.871-1.916 3.275-3.849 6.541-5.763 9.818-.279.479-.572.762-1.204.764-3.475.006-6.955-.043-10.423.146-2.586.141-4.991-.182-7.245-1.486-.281-.162-.634-.203-1.088-.342l-.051 5.189c-.377.131-.668.256-.971.332-5.307 1.336-10.618 2.654-15.92 4.008-.62.158-1.151.127-1.729-.125-2.162-.939-4.336-1.85-6.507-2.77-1.72-.729-3.44-1.453-5.277-2.23-.215.52-.402.947-.572 1.383-1.047 2.68-2.119 5.35-3.112 8.047-.276.752-.713 1.047-1.456 1.162-1.577.242-3.146.539-4.715.834-7.181 1.346-14.362 2.689-21.538 4.063-.627.121-1.171.07-1.732-.188a936.484 936.484 0 0 0-5.673-2.578c-.963-.434-1.936-.848-2.962-1.295-.178.479-.308.811-.424 1.145-.783 2.266-1.61 4.516-2.323 6.803-.288.926-.759 1.316-1.714 1.488a3511.684 3511.684 0 0 0-24.723 4.588c-.615.117-1.153.125-1.738-.119-8.182-3.416-16.369-6.818-24.558-10.219-.949-.395-1.908-.768-2.979-1.195-.193 6.764-.083 13.381-.314 19.966-.441.141-.74.254-1.049.332-5.266 1.334-10.535 2.652-15.796 4.004-.563.145-1.012-.008-1.494-.207-5.32-2.182-10.643-4.363-15.966-6.537-.425-.174-.869-.299-1.345-.459-.045.273-.09.428-.094.584-.055 3.275-.105 6.549-.155 9.822-.008.508-.011 1.016-.015 1.504-.368.123-.589.213-.818.271-5.227 1.326-10.457 2.635-15.676 3.99-.792.205-1.445.145-2.175-.223-2.497-1.258-5.024-2.457-7.544-3.666-.349-.168-.725-.277-1.154-.439-2.158 3.676-4.273 7.277-6.334 10.783-.659-.006-1.141.02-1.615-.021-3.935-.326-7.863-.727-11.803-.979-2.344-.15-4.568-.598-6.707-1.582-1.56-.717-3.182-1.297-4.779-1.928-.281-.111-.585-.164-.963-.266l-.09 9.127c-.375.111-.71.223-1.052.309-3.561.904-7.126 1.791-10.682 2.711-1.657.43-3.297.924-4.944 1.387-.48-.004-.961-.008-1.44-.014-.347-.184-.679-.4-1.04-.545-2.152-.857-4.311-1.695-6.465-2.547-10.138-4.012-20.275-8.023-30.411-12.039-9.729-3.855-19.454-7.719-29.179-11.584-.254-.1-.491-.242-.803-.398.004-.408.006-.803.012-1.199.067-4.275.143-8.548.201-12.826.049-3.676.085-7.354.117-11.031.051-5.875.09-11.752.145-17.629.011-1.076.084-2.152.108-3.23.024-1.033.023-2.068.034-3.207-3.135-1.103-6.176-2.175-9.217-3.246zm25.988 46.838l.269-27.07 12.581-3.15c-.02 8.055-.313 15.938-.168 23.908l14.443 1.176c1.752-2.48 7.889-13.213 8.104-14.203l-7.971-.635c.148-17.355.407-34.621.538-52.012l-14.502 3.815-.257 25.975c-4.173 1.059-8.257 2.094-12.523 3.174-.155-7.605.173-15.006.16-22.479-2.425-.23-4.763-.459-7.103-.676-2.225-.209-4.452-.398-6.676-.617-.572-.055-.938.063-1.257.621-2.345 4.092-4.735 8.156-7.107 12.232-.212.365-.396.748-.697 1.324l8.167.637c-.086 8.707-.19 17.26-.249 25.813-.06 8.535-.293 17.072-.231 25.812l14.479-3.645zm239.361-93.953c.646-.63 1.176-1.162 1.721-1.678 1.77-1.675 3.538-3.35 5.32-5.011.402-.375.575-.782.631-1.347.255-2.589.265-5.173.037-7.763a50.254 50.254 0 0 0-2.394-11.582c-.438-1.312-.972-2.592-1.466-3.899-3.179.539-6.208 1.042-9.233 1.567-7.627 1.325-15.249 2.679-22.883 3.966-.835.141-1.243.524-1.583 1.216-2.095 4.269-4.215 8.524-6.321 12.788-.151.306-.262.633-.452 1.1 3.307-.38 6.384-1.159 9.637-1.493-.005.475-.003.789-.013 1.103-.051 1.755-.123 3.51-.152 5.266-.055 3.273-.086 6.547-.123 9.82-.043 3.713-.082 7.427-.124 11.141-.038 3.433-.081 6.866-.116 10.3-.046 4.514-.087 9.027-.124 13.541-.004.422.04.844.069 1.418l14.58-3.68c.04-.279.079-.436.082-.592.046-2.996.098-5.992.129-8.99.047-4.554.076-9.109.12-13.664.003-.268.063-.533.095-.789 1.356-.08 1.405-.072 1.738.971 1.322 4.146 2.624 8.299 3.941 12.447.688 2.166 1.393 4.326 2.088 6.48.235.031.392.072.547.07 3.596-.057 7.191-.162 10.786-.148 1.01.002 1.588-.293 2.085-1.17 2.344-4.135 4.751-8.233 7.13-12.347.173-.299.304-.619.563-1.156l-9.14.152-5.705-17.629-1.47-.408zm-90.53-85.708c-.207-.019-.288-.042-.362-.03-4.207.73-8.414 1.466-12.621 2.196-6.412 1.113-12.822 2.235-19.239 3.314-.724.122-1.111.44-1.422 1.075-2.144 4.379-4.317 8.744-6.479 13.116-.12.244-.206.504-.381.939l9.594-1.583a31876.294 31876.294 0 0 1-.13 11.263c-.035 2.999-.074 5.997-.107 8.996-.08 7.317-.163 14.633-.233 21.95-.026 2.76-.021 5.52-.032 8.28-.003.625-.012 1.25-.02 2.025l14.574-3.682c.068-1.58.168-3.051.188-4.523.062-4.717.097-9.434.137-14.151.012-1.52 0-3.04.015-4.56.003-.257.083-.513.127-.761 1.397.102 1.408.099 1.771 1.231 1.765 5.516 3.522 11.035 5.287 16.552.216.675.461 1.341.685 1.99.256.034.412.073.568.071 3.835-.035 7.67-.086 11.505-.101.595-.002.839-.332 1.09-.762 2.498-4.28 5.005-8.555 7.501-12.836.127-.22.18-.485.285-.781l-9.021-.089c-.215-.677-.426-1.357-.646-2.035-1.529-4.711-3.094-9.411-4.562-14.141-.293-.944-.62-1.604-1.679-1.66-.055-.003-.105-.084-.203-.167.235-.247.441-.484.67-.699 1.977-1.863 3.916-3.767 5.956-5.558.777-.683 1.008-1.442 1.068-2.388.273-4.25.001-8.462-.82-12.638-.665-3.379-1.717-6.642-3.064-9.853zm51.992 66.421c-.419-.004-.729-.041-1.03-.004-1.464.178-2.925.389-4.389.565-4.517.541-9.034 1.07-13.552 1.604-3.289.389-6.579.774-9.867 1.174-.475.058-.877.194-1.146.712-2.612 5.036-5.264 10.051-7.881 15.084-.194.372-.288.832-.303 1.257-.063 1.798-.09 3.597-.105 5.395-.051 5.479-.082 10.958-.138 16.437-.067 6.757-.144 13.513-.241 20.271-.012.799.164 1.455.67 2.094a101.728 101.728 0 0 1 3.458 4.602c.48.684.939.875 1.789.711 7.841-1.512 15.689-2.98 23.544-4.414.854-.156 1.298-.504 1.605-1.314 1.543-4.072 3.15-8.121 4.729-12.18.255-.656.475-1.326.797-2.23-7.438 1.258-14.61 2.725-21.926 3.973l.13-13.137 14.865-3.776.122-12.332-14.86 3.711.108-10.876c.451-.079.874-.175 1.303-.227 4.438-.53 8.873-1.077 13.315-1.56.826-.09 1.28-.458 1.636-1.15 2.321-4.513 4.662-9.015 6.992-13.523.124-.242.216-.498.375-.867zm-163.29 10.485c.011-1.141.024-2.051.028-2.962.011-2.8.019-5.6.028-8.4.005-1.694.004-1.697 1.596-2.097 3.411-.854 6.824-1.702 10.232-2.561 1.033-.261 2.059-.551 3.07-.824.302-4.126.244-8.133.146-12.3l-14.828 3.705c.021-3.762-.078-7.331.24-10.924.268-.055.457-.109.648-.132 2.615-.314 5.23-.626 7.846-.934 2.02-.237 4.043-.458 6.063-.705.546-.067 1.059-.138 1.378-.758 2.413-4.689 4.864-9.36 7.296-14.041.101-.194.129-.425.224-.749-.495.023-.89.018-1.276.064-3.685.435-7.369.874-11.053 1.322-5.464.665-10.926 1.353-16.395 1.984-.642.074-1.025.295-1.3.843a233.559 233.559 0 0 1-1.759 3.41c-1.852 3.541-3.678 7.096-5.58 10.61-.512.947-.8 1.881-.809 2.953-.062 7.077-.152 14.154-.223 21.231-.056 5.479-.093 10.957-.144 16.437-.013 1.319-.024 2.639-.084 3.956-.023.518.126.921.435 1.318.758.98 1.486 1.981 2.232 2.971.719.952 1.443 1.9 2.169 2.855.587-.094 1.099-.166 1.606-.26 1.768-.328 3.533-.666 5.301-.996 5.966-1.119 11.928-2.256 17.9-3.334.792-.143 1.147-.509 1.419-1.215 1.747-4.551 3.534-9.086 5.302-13.628.092-.235.136-.489.24-.88l-21.948 4.041zm160.213-65.848c-5.053 1.252-9.911 2.582-14.863 3.693l.106-10.835c.342-.074.609-.156.884-.188 4.592-.554 9.184-1.123 13.781-1.631.73-.081 1.13-.347 1.462-.989 2.311-4.471 4.658-8.922 6.99-13.382.179-.343.324-.704.52-1.128-.453-.004-.771-.042-1.081-.006-3.722.438-7.443.882-11.164 1.333-5.225.635-10.443 1.319-15.676 1.885-1.292.139-2.188.547-2.619 1.794a.828.828 0 0 1-.05.109c-2.432 4.632-4.867 9.262-7.283 13.902-.177.339-.291.75-.303 1.131-.063 1.917-.086 3.834-.112 5.752-.047 3.396-.091 6.793-.127 10.19-.046 4.315-.085 8.631-.123 12.947-.041 4.515-.069 9.029-.127 13.543-.009.674.146 1.225.572 1.761.896 1.125 1.729 2.3 2.596 3.448.549.727 1.111 1.442 1.659 2.15.682-.125 1.268-.231 1.854-.34 3.454-.644 6.908-1.285 10.36-1.935 4.236-.797 8.468-1.618 12.708-2.388.638-.116.954-.389 1.182-.979 1.779-4.621 3.59-9.229 5.384-13.844.078-.202.088-.431.163-.826l-21.83 4.009.13-13.045 14.885-3.78.122-12.351zM42.143 64.763c-2.526.279-4.862.524-7.194.797-4.041.473-8.076 1.003-12.123 1.425-1.668.173-3.022.549-4.242 1.941-2.715 3.101-5.401 6.204-7.658 9.663-.861 1.32-1.438 2.729-1.814 4.266-.891 3.637-1.055 7.348-1.188 11.053-.098 2.711.054 5.432.119 8.147.014.551.143 1.098.228 1.723l18.306 5c.498 3.042.357 5.947.205 8.855-.035.678-.461.703-.98.751-4.092.372-8.181.762-12.27 1.157-1.305.127-2.605.289-3.972.442-.907 2.595-1.841 5.144-2.687 7.722-.836 2.551-1.849 5.049-2.59 7.76.372.003.567.026.757.004 7.645-.92 15.288-1.85 22.935-2.756.637-.074 1.107-.289 1.522-.792 2.421-2.93 4.767-5.917 6.778-9.144.928-1.488 1.958-2.982 2.505-4.621 1.038-3.108 1.525-6.373 1.61-9.654.074-2.91.016-5.829-.133-8.736-.1-1.942-.461-3.872-.711-5.846l-17.987-4.361c.155-2.534.282-4.921.459-7.306.062-.835.204-.917 1.034-1.003 3.927-.403 7.853-.816 11.781-1.198.785-.077 1.248-.34 1.573-1.149 1.789-4.446 3.66-8.859 5.497-13.287.091-.215.13-.451.24-.853zm66.931 31.075c-2.293-6.672-3.287-13.362-3.486-20.18-.09-3.074.084-6.145.561-9.188.284-1.815.716-3.592 1.456-5.297.471-1.085 1.18-1.531 2.347-1.651 4.125-.421 8.238-.958 12.361-1.401.729-.079 1.129-.336 1.428-1.013 1.674-3.8 3.397-7.578 5.096-11.367.447-1 .863-2.014 1.345-3.142-.532.024-.887.017-1.235.061-3.641.454-7.279.916-10.918 1.377-2.649.336-5.3.663-7.945 1.024-.375.051-.79.196-1.078.431a56.034 56.034 0 0 0-2.979 2.594c-4.463 4.196-8.078 9.046-11.037 14.398-.949 1.715-1.83 3.425-2.043 5.443-.395 3.725-1.064 7.425-1.348 11.156-.328 4.34-.193 8.694.217 13.04.525 5.556 1.667 10.964 3.57 16.207.447 1.232.973 2.436 1.468 3.666.409-.016.726-.002 1.036-.043 1.463-.188 2.922-.399 4.385-.586 6.568-.84 13.137-1.68 19.709-2.501.666-.083 1.046-.358 1.301-1.011 1.77-4.538 3.58-9.061 5.374-13.59.144-.362.265-.734.47-1.311l-20.055 2.884zm-2.061 94.243c.438-.055.672-.059.895-.115a3393.09 3393.09 0 0 0 12.652-3.211c1.105-.281 1.097-.301 1.111-1.447.037-3.113.083-6.227.119-9.34.047-3.914.085-7.826.129-11.738.035-3.193.074-6.389.108-9.582.042-3.914.087-7.83.118-11.744.018-2.279.009-4.558.014-6.837.001-.391.008-.782.012-1.178.461-.131.801-.238 1.146-.325 3.059-.774 6.117-1.548 9.178-2.313.556-.139 1.013-.295 1.228-.948 1.448-4.398 2.938-8.783 4.402-13.175.066-.199.033-.431.053-.724-.453.089-.804.141-1.145.228-6.387 1.61-12.773 3.226-19.158 4.84l-19.516 4.939c-.574.146-1.083.242-1.324.987-1.227 3.801-2.539 7.574-3.809 11.362-.273.817-.494 1.653-.782 2.623 5.185-1.007 10.039-2.697 15.229-3.84-.005.555-.004.94-.014 1.325-.053 2.035-.126 4.068-.158 6.103-.056 3.592-.088 7.186-.129 10.777-.039 3.514-.082 7.027-.115 10.541-.047 4.912-.082 9.826-.131 14.74-.021 2.076-.063 4.15-.095 6.227-.008.553-.011 1.106-.018 1.825zM249.96 75.482c.521-.089.876-.125 1.219-.211 4.029-1.014 8.058-2.033 12.084-3.057 1.311-.333 1.302-.342 1.317-1.68.041-3.477.093-6.953.134-10.43.048-4.036.084-8.072.134-12.107.037-3.035.104-6.07.13-9.105.045-5.434.067-10.868.101-16.302.004-.712.014-1.425.021-2.187.479-.142.893-.28 1.313-.386 2.942-.747 5.877-1.534 8.838-2.199.875-.197 1.265-.605 1.527-1.405 1.361-4.137 2.768-8.259 4.152-12.388.108-.323.167-.663.291-1.162-.646.148-1.142.252-1.632.377-5.576 1.413-11.15 2.837-16.729 4.243a3930.594 3930.594 0 0 1-21.392 5.345c-.873.215-1.341.601-1.626 1.476-1.211 3.722-2.503 7.417-3.76 11.124-.238.704-.449 1.417-.735 2.321.563-.095.947-.134 1.317-.227 3.913-.981 7.824-1.973 11.738-2.955.676-.169 1.362-.302 2.113-.467.021.42.051.695.046.97-.034 2.236-.081 4.471-.112 6.707-.041 2.877-.074 5.754-.106 8.631-.08 7.315-.156 14.631-.236 21.946-.036 3.278-.077 6.556-.115 9.834l-.032 3.294zm-86.711 85.661c-.026-.494-.062-.813-.058-1.129.039-3.475.086-6.949.125-10.424.045-3.873.083-7.746.127-11.621.037-3.233.084-6.467.117-9.701.047-4.634.087-9.268.123-13.902.004-.387-.041-.773-.072-1.279-.488-.004-.879-.018-1.27-.011-2.314.043-4.629.106-6.943.132-1.76.02-3.521.033-5.278-.029-.818-.029-1.317.223-1.728.947-2.398 4.241-4.839 8.459-7.26 12.689-.127.222-.199.475-.338.815l8.266.082c-.051.776-.137 1.552-.146 2.329-.053 3.754-.082 7.508-.123 11.262-.036 3.396-.081 6.792-.113 10.189-.049 5.277-.096 10.553-.133 15.83-.01 1.238-.255 2.568.115 3.689.369 1.117 1.37 2.029 2.104 3.025.639.869 1.287 1.732 1.938 2.59.213.281.452.543.673.807.492-.072.928-.123 1.359-.203 3.846-.717 7.69-1.438 11.536-2.158 3.57-.67 7.138-1.352 10.712-2 .572-.104.913-.314 1.109-.898 1.556-4.619 3.145-9.227 4.713-13.84.079-.234.07-.5.117-.865-6.597 1.233-13.059 2.44-19.672 3.674zM85.55 195.61c.039-.383.087-.656.091-.93A12470.724 12470.724 0 0 0 86 169.632c.049-3.754.087-7.508.135-11.264.041-3.313.098-6.627.131-9.939.047-4.832.079-9.664.111-14.496.002-.389-.045-.777-.076-1.264-.456-.005-.81-.014-1.163-.012-4.753.036-9.506.086-14.259.096-.652.002-1.012.244-1.326.789-2.485 4.327-4.996 8.64-7.492 12.96-.129.225-.188.492-.344.912l9.982-.168-.516 51.977c4.873-1.224 9.617-2.418 14.367-3.613z"/>
      <path
        d="M253.204 101.84l4.396-.707c.245 1.117.535 2.146.686 3.194.209 1.458.339 2.927.447 4.396.026.365-.038.872-.271 1.101-1.816 1.79-3.685 3.527-5.571 5.313.021-2.154.045-4.354.064-6.555.019-2.224-.196-4.457.249-6.742zM158.679 47.358l4.493-.729c.181.726.404 1.361.487 2.014.24 1.893.422 3.792.631 5.689.063.564-.172.966-.567 1.362-1.551 1.55-3.069 3.132-4.604 4.697-.125.128-.291.217-.572.421l.132-13.454z"/>
    </g>
    <g id="letters" fill="#F2654B">
      <path
        d="M25.988 210.639l-14.479 3.644c-.062-8.74.172-17.277.231-25.812.059-8.553.163-17.105.249-25.813l-8.167-.637c.302-.576.485-.959.697-1.324 2.372-4.076 4.763-8.141 7.107-12.232.319-.559.685-.676 1.257-.621 2.224.219 4.451.408 6.676.617 2.34.217 4.678.445 7.103.676.013 7.473-.315 14.873-.16 22.479 4.267-1.08 8.351-2.115 12.523-3.174l.257-25.975 14.502-3.815c-.131 17.391-.39 34.657-.538 52.012l7.971.635c-.216.99-6.353 11.723-8.104 14.203l-14.443-1.176c-.145-7.971.148-15.854.168-23.908l-12.581 3.15-.269 27.071zM265.349 116.686l1.471.409 5.705 17.629c3-.051 5.966-.1 9.14-.152-.26.537-.391.857-.563 1.156-2.379 4.114-4.786 8.212-7.13 12.347-.497.877-1.075 1.172-2.085 1.17-3.595-.014-7.19.092-10.786.148-.155.002-.312-.039-.547-.07-.695-2.154-1.4-4.314-2.088-6.48-1.317-4.148-2.619-8.3-3.941-12.447-.333-1.043-.382-1.051-1.738-.971-.031.256-.092.521-.095.789-.044 4.555-.073 9.109-.12 13.664-.031 2.998-.083 5.994-.129 8.99-.003.156-.042.313-.082.592l-14.58 3.68c-.029-.574-.073-.996-.069-1.418.037-4.514.078-9.027.124-13.541.035-3.434.078-6.868.116-10.3.042-3.714.081-7.428.124-11.141.037-3.273.068-6.547.123-9.82.029-1.756.102-3.511.152-5.266.01-.314.008-.628.013-1.103-3.253.334-6.33 1.113-9.637 1.493.19-.467.301-.794.452-1.1 2.106-4.263 4.227-8.519 6.321-12.788.34-.692.748-1.075 1.583-1.216 7.634-1.287 15.256-2.641 22.883-3.966 3.025-.525 6.055-1.028 9.233-1.567.494 1.307 1.027 2.587 1.466 3.899a50.254 50.254 0 0 1 2.394 11.582c.228 2.59.218 5.174-.037 7.763-.056.564-.229.972-.631 1.347-1.782 1.661-3.551 3.336-5.32 5.011-.546.514-1.076 1.047-1.722 1.677zm-12.145-14.846c-.444 2.285-.229 4.518-.248 6.743-.02 2.2-.043 4.4-.064 6.555 1.887-1.786 3.755-3.523 5.571-5.313.232-.229.297-.735.271-1.101-.108-1.469-.238-2.938-.447-4.396-.15-1.048-.44-2.077-.686-3.194l-4.397.706zM174.819 30.978c1.347 3.211 2.399 6.474 3.063 9.854a48.92 48.92 0 0 1 .82 12.638c-.061.946-.291 1.705-1.068 2.388-2.04 1.791-3.979 3.695-5.956 5.558-.229.215-.435.453-.67.699.098.083.148.165.203.167 1.059.056 1.386.716 1.679 1.66 1.468 4.73 3.032 9.43 4.562 14.141.22.677.431 1.357.646 2.035l9.021.089c-.105.296-.158.561-.285.781-2.496 4.281-5.003 8.556-7.501 12.836-.251.43-.495.76-1.09.762-3.835.015-7.67.065-11.505.101-.156.001-.313-.038-.568-.071-.224-.648-.469-1.314-.685-1.99-1.765-5.517-3.522-11.036-5.287-16.552-.362-1.132-.373-1.129-1.771-1.231-.044.248-.124.504-.127.761-.015 1.52-.003 3.04-.015 4.56-.04 4.717-.075 9.435-.137 14.151-.02 1.472-.119 2.943-.188 4.523l-14.574 3.682c.008-.775.017-1.4.02-2.025.011-2.76.006-5.52.032-8.28.07-7.317.153-14.633.233-21.95.033-2.999.072-5.998.107-8.996l.115-9.835c.006-.428.01-.856.015-1.428l-9.594 1.583c.175-.435.261-.696.381-.939 2.161-4.372 4.335-8.736 6.479-13.116.311-.634.698-.953 1.422-1.075 6.417-1.08 12.827-2.202 19.239-3.314 4.207-.73 8.414-1.466 12.621-2.196.075-.013.156.01.363.029zm-16.14 16.38l-.133 13.454c.281-.204.447-.292.572-.421 1.535-1.564 3.054-3.147 4.604-4.697.396-.396.63-.798.567-1.362-.209-1.896-.391-3.796-.631-5.689-.083-.653-.307-1.288-.487-2.014l-4.492.729zM226.811 97.399c-.159.369-.251.625-.375.864-2.33 4.508-4.671 9.011-6.992 13.523-.355.692-.81 1.061-1.636 1.15-4.442.482-8.878 1.029-13.315 1.56-.429.052-.852.147-1.303.227l-.108 10.876 14.86-3.711-.122 12.332-14.865 3.776-.13 13.137c7.315-1.248 14.487-2.715 21.926-3.973-.322.904-.542 1.574-.797 2.23-1.578 4.059-3.186 8.107-4.729 12.18-.308.811-.751 1.158-1.605 1.314a2419.294 2419.294 0 0 0-23.544 4.414c-.85.164-1.309-.027-1.789-.711a102.293 102.293 0 0 0-3.458-4.602c-.506-.639-.682-1.295-.67-2.094.098-6.758.174-13.514.241-20.271.056-5.479.087-10.958.138-16.437.016-1.798.043-3.597.105-5.395.015-.425.108-.885.303-1.257 2.617-5.033 5.269-10.049 7.881-15.084.27-.518.672-.654 1.146-.712 3.288-.4 6.578-.785 9.867-1.174 4.518-.534 9.035-1.064 13.552-1.604 1.464-.176 2.925-.387 4.389-.565.301-.034.611.003 1.03.007zM63.521 107.884l21.951-4.042c-.104.391-.148.645-.24.88-1.768 4.542-3.555 9.078-5.302 13.628-.271.706-.627 1.072-1.419 1.215-5.973 1.078-11.935 2.215-17.9 3.334-1.768.33-3.533.668-5.301.996-.508.094-1.02.166-1.606.26-.726-.955-1.45-1.903-2.169-2.855-.746-.989-1.475-1.99-2.232-2.971-.309-.397-.458-.801-.435-1.318.06-1.317.071-2.637.084-3.956.051-5.479.088-10.958.144-16.437.07-7.077.161-14.154.223-21.231.009-1.071.297-2.005.809-2.953 1.902-3.514 3.729-7.069 5.58-10.61a228.572 228.572 0 0 0 1.759-3.41c.274-.548.658-.769 1.3-.843 5.469-.631 10.931-1.32 16.395-1.984 3.684-.448 7.368-.887 11.053-1.322.387-.046.781-.041 1.276-.064-.095.323-.123.555-.224.749-2.432 4.681-4.883 9.352-7.296 14.041-.319.62-.832.691-1.378.758-2.02.247-4.043.468-6.063.705-2.615.308-5.23.62-7.846.934-.191.023-.381.077-.648.132-.318 3.593-.219 7.162-.24 10.924l14.828-3.705c.098 4.167.155 8.174-.146 12.3-1.012.272-2.037.563-3.07.824-3.408.859-6.821 1.707-10.232 2.561-1.592.399-1.591.402-1.596 2.097l-.028 8.4c-.007.912-.02 1.822-.031 2.963zM223.734 42.036l-.123 12.352-14.885 3.78-.13 13.045 21.83-4.009c-.075.396-.085.625-.163.826-1.794 4.615-3.604 9.224-5.384 13.844-.228.59-.544.863-1.182.979-4.24.77-8.472 1.59-12.708 2.388-3.452.65-6.906 1.291-10.36 1.935-.586.109-1.172.215-1.854.34-.548-.708-1.11-1.424-1.659-2.15-.867-1.148-1.7-2.323-2.596-3.448-.427-.536-.581-1.087-.572-1.761.058-4.514.086-9.029.127-13.543.038-4.315.077-8.631.123-12.947.036-3.396.08-6.793.127-10.19.026-1.917.05-3.835.112-5.752.012-.381.126-.792.303-1.131 2.416-4.64 4.852-9.27 7.283-13.902a.892.892 0 0 0 .05-.109c.431-1.248 1.327-1.655 2.619-1.794 5.232-.566 10.451-1.25 15.676-1.885 3.721-.452 7.442-.896 11.164-1.333.31-.036.628.001 1.081.006-.195.425-.341.785-.52 1.128-2.332 4.46-4.68 8.911-6.99 13.382-.332.642-.731.908-1.462.989-4.598.508-9.189 1.077-13.781 1.631-.274.033-.542.114-.884.188l-.106 10.835c4.953-1.113 9.811-2.442 14.864-3.694zM42.143 64.763c-.11.401-.149.638-.239.853-1.837 4.427-3.708 8.84-5.497 13.287-.325.809-.788 1.072-1.573 1.149-3.929.382-7.854.794-11.781 1.198-.83.085-.973.168-1.034 1.003-.177 2.385-.304 4.772-.459 7.306l17.987 4.361c.25 1.974.611 3.903.711 5.846.148 2.907.207 5.826.133 8.736-.085 3.281-.572 6.546-1.61 9.654-.547 1.639-1.577 3.133-2.505 4.621-2.012 3.227-4.357 6.214-6.778 9.144-.415.503-.886.718-1.522.792-7.646.906-15.29 1.836-22.935 2.756-.189.022-.385-.001-.757-.004.741-2.711 1.754-5.209 2.59-7.76.846-2.578 1.779-5.127 2.687-7.722 1.366-.153 2.667-.315 3.972-.442 4.089-.396 8.178-.785 12.27-1.157.52-.048.945-.073.98-.751.152-2.908.293-5.813-.205-8.855l-18.306-5c-.085-.625-.214-1.172-.228-1.723-.065-2.715-.217-5.436-.119-8.147.133-3.705.297-7.416 1.188-11.053.377-1.537.953-2.945 1.814-4.266 2.257-3.459 4.943-6.562 7.658-9.663 1.22-1.392 2.574-1.768 4.242-1.941 4.047-.421 8.082-.952 12.123-1.425 2.331-.272 4.667-.518 7.193-.797zM109.074 95.838l20.053-2.884c-.205.576-.326.948-.47 1.311-1.794 4.529-3.604 9.052-5.374 13.59-.255.652-.635.928-1.301 1.011-6.572.821-13.141 1.661-19.709 2.501-1.463.187-2.922.398-4.385.586-.311.041-.627.027-1.036.043-.495-1.23-1.021-2.434-1.468-3.666-1.903-5.243-3.045-10.651-3.57-16.207-.41-4.346-.545-8.7-.217-13.04.283-3.731.953-7.431 1.348-11.156.213-2.018 1.094-3.728 2.043-5.443 2.959-5.352 6.574-10.202 11.037-14.398a56.034 56.034 0 0 1 2.979-2.594c.288-.235.703-.38 1.078-.431 2.646-.361 5.296-.688 7.945-1.024 3.639-.461 7.277-.923 10.918-1.377.349-.043.703-.036 1.235-.061-.481 1.128-.897 2.143-1.345 3.142-1.698 3.79-3.422 7.567-5.096 11.367-.299.677-.699.935-1.428 1.013-4.123.444-8.236.98-12.361 1.401-1.167.12-1.876.565-2.347 1.651-.74 1.705-1.172 3.482-1.456 5.297a49.924 49.924 0 0 0-.561 9.188c.201 6.818 1.195 13.508 3.488 20.18zM107.013 190.081c.007-.719.01-1.271.019-1.826.031-2.076.074-4.15.095-6.227.049-4.914.084-9.828.131-14.74.033-3.514.076-7.027.115-10.541.041-3.592.073-7.186.129-10.777.032-2.035.105-4.068.158-6.103.01-.385.009-.771.014-1.325-5.19 1.144-10.045 2.833-15.229 3.84.288-.969.509-1.805.782-2.623 1.27-3.788 2.582-7.562 3.809-11.362.241-.745.75-.842 1.324-.987l19.516-4.939c6.385-1.614 12.771-3.229 19.158-4.84.341-.087.691-.139 1.145-.228-.02.293.014.524-.053.724-1.465 4.392-2.954 8.776-4.402 13.175-.215.653-.672.81-1.228.948-3.061.766-6.119 1.539-9.178 2.313-.345.087-.685.194-1.146.325-.004.396-.011.787-.012 1.178-.005 2.279.004 4.559-.014 6.837-.031 3.914-.076 7.83-.118 11.744-.034 3.193-.073 6.389-.108 9.582-.044 3.912-.082 7.824-.129 11.738-.036 3.113-.082 6.227-.119 9.34-.015 1.146-.006 1.166-1.111 1.447a3717.64 3717.64 0 0 1-12.652 3.211c-.224.057-.458.061-.896.116zM249.96 75.482l.032-3.296c.038-3.278.079-6.556.115-9.834.08-7.315.156-14.631.236-21.946.032-2.877.065-5.754.106-8.631.031-2.235.078-4.471.112-6.707.005-.274-.024-.549-.046-.97-.751.165-1.438.298-2.113.467-3.914.981-7.825 1.974-11.738 2.955-.37.093-.754.131-1.317.227.286-.904.497-1.617.735-2.321 1.257-3.707 2.549-7.402 3.76-11.124.285-.875.753-1.261 1.626-1.476a3840.233 3840.233 0 0 0 21.392-5.345c5.578-1.405 11.152-2.83 16.729-4.243.49-.125.985-.229 1.632-.377-.124.5-.183.839-.291 1.162-1.385 4.129-2.791 8.251-4.152 12.388-.263.8-.652 1.208-1.527 1.405-2.961.666-5.896 1.453-8.838 2.199-.42.106-.833.244-1.313.386-.008.762-.018 1.475-.021 2.187-.033 5.434-.056 10.868-.101 16.302-.025 3.036-.093 6.07-.13 9.105-.05 4.036-.086 8.072-.134 12.107-.041 3.477-.093 6.953-.134 10.43-.016 1.338-.007 1.346-1.317 1.68a5474.057 5474.057 0 0 1-12.084 3.057c-.343.088-.697.124-1.219.213zM163.249 161.143l19.673-3.674c-.047.365-.038.631-.117.865-1.568 4.613-3.157 9.221-4.713 13.84-.196.584-.537.795-1.109.898-3.574.648-7.142 1.33-10.712 2-3.846.721-7.69 1.441-11.536 2.158-.432.08-.867.131-1.359.203-.221-.264-.46-.525-.673-.807-.651-.857-1.3-1.721-1.938-2.59-.733-.996-1.734-1.908-2.104-3.025-.37-1.121-.125-2.451-.115-3.689.037-5.277.084-10.553.133-15.83.032-3.396.077-6.793.113-10.189.041-3.754.07-7.508.123-11.262.01-.777.096-1.553.146-2.329l-8.266-.082c.139-.341.211-.594.338-.815 2.421-4.23 4.861-8.448 7.26-12.689.41-.725.909-.977 1.728-.947 1.758.063 3.519.049 5.278.029 2.314-.025 4.629-.089 6.943-.132.391-.007.781.007 1.27.011.031.506.076.893.072 1.279-.036 4.635-.076 9.269-.123 13.902-.033 3.234-.08 6.468-.117 9.701-.044 3.875-.082 7.748-.127 11.621-.039 3.475-.086 6.949-.125 10.424-.005.317.03.635.057 1.129zM85.55 195.61c-4.75 1.195-9.494 2.389-14.367 3.613l.516-51.977-9.982.168c.156-.42.215-.688.344-.912 2.496-4.32 5.007-8.633 7.492-12.96.314-.545.674-.787 1.326-.789 4.753-.01 9.506-.06 14.259-.096.354-.002.707.007 1.163.012.031.486.078.875.076 1.264-.032 4.832-.064 9.664-.111 14.496-.033 3.313-.09 6.627-.131 9.939-.048 3.756-.086 7.51-.135 11.264-.042 3.357-.09 6.713-.139 10.068-.07 4.994-.143 9.986-.22 14.98-.004.274-.052.547-.091.93z"/>
    </g>
  </g>
</svg>