<svg id="Layer_1" xmlns="http://www.w3.org/2000/svg" width="43.2" height="39.684"><path d="M3.425 15.775C3.2 15.9.153 19.763.059 19.972c-.094.21-.063 2.972 0 3.2s.166.203.166.203c0 .4-.003.732.4.801s2-.201 2-.201l-2 1.201c-.4.398-.6.799-.6 1.398l.6 2.4c0 .201-.018.801.2.801.125 0 0 0 0 0h.4s2.532.543 2.59.469.209-.27.209-.27c.2-.199.6-.199.8-.4l7.2-7.199 4-3.8 1.4 3c.2.602.6 1 1.2 1l.6.602.8 1c.2.6 1 1 1.8.799 0 0 .201 0 .201-.199l.799 1.6c.4.801 1.4 1.199 2.4.801l.6.398.6 1.201c.4.6 1.201 1 1.801.6l1.6 1.199.201.4c.199.4.6.6 1 .6l1.199 1 4.6 3.801 3.6 2.801c.801.6 1.602.398 2.201-.4.199-.6.199-1 .199-1.4l-.799-2v-.4l-4.201-9.4-.6-1.199-1.199-2.4c-.4-1-1-1.8-1.801-2.4l-8-5c0-.4 0-.8-.199-1.2l7.398-2.6 2.602-1.6 6.199-8-.6-1-8.4 5-1.6.4-5.201 1.2c.4-.8.801-1.6 1.201-2.4 0-1.8-1.4-3.2-3.201-3-.398 0-.799 0-1.199.2l-4 .6 2 1.6-4.401.8c-2.2.4-4 2.2-4.8 4.4l-1.2 4.4c-.2.4-.4 1-.4 1.6"/></svg>