<svg class="secret-illustration secret-illustration-skull" xmlns="http://www.w3.org/2000/svg" height="25.8" width="36" viewBox="0 0 18 12.9"><path class="secret-illustration-fill" d="M10.6.7c-.1.2-.3.3-.6.3h-.3L7.3.8c-.2 0-.3 0-.5-.1-.3 0-.5-.1-.8-.1-3.3 0-6 2.5-6 5.7v.5c0 3.1 2.6 5.7 5.9 5.7.3 0 .5 0 .8-.1.2 0 .3 0 .5-.1l2.4-.2h.3c.2 0 .5.1.6.3.3.4.8.6 1.3.5l1.6-.5c.7-.2 1-.9.8-1.5-.1-.3 0-.7.2-1l.2-.2c.1-.1.2-.2.4-.1h.5c1.8 0 2.5-1.4 2.5-3.1v-.1c0-1.7-.7-3.1-2.5-3.1H15c-.1 0-.3 0-.4-.1l-.2-.2c-.3-.3-.4-.6-.2-1 .2-.6-.1-1.3-.8-1.5L11.8 0c-.4.1-.9.3-1.2.7zm2.1 9c0 .9-1 1.7-2.3 1.7H10l-.4-.1c-.9-.2-1.5-.8-1.5-1.5 0-.6 0-1.4.6-1.9.1 0 .1-.1.2-.1 0 0 1.2-.3 1.5-.3.6 0 1 .5 1.4 1 .5.3.9.7.9 1.2zM14.9 6c0 .3-.2.5-.5.6h-.1.1c.3.1.5.3.5.6s-.4.6-.9.6c-.3 0-.6-.1-.8-.3-.2-.2-.5-.3-.8-.4l-.2-.1h-.1l-.2-.1c-.3-.1-.3-.5 0-.6l.6-.2c.3-.1.6-.3.8-.4.2-.2.4-.3.8-.3s.8.3.8.6zm-2.2-2.4c0 .5-.5.9-.9 1.3-.4.5-.8 1-1.4 1-.5 0-1.3-.1-1.7-.4-.6-.5-.6-1.4-.6-1.9 0-.9 1-1.7 2.3-1.7 1.3.1 2.3.8 2.3 1.7z"/></svg>