<svg width="270" height="29" fill="none" xmlns="http://www.w3.org/2000/svg">
  <path
    d="M264.58 22.48l-2.41-5.63-.75-.22 3.21-1.66.06-.54a11.9 11.9 0 0 0-1.4-6.22l-.32-.7-28.87-5.85-13.63-.75-1.28 1.67-2.58-.54L204.43.9 201.7 4.3l-11.1-2.25-6.01-1.07-1.02 1.12-3.38-.7-16.8.06-.7 1.45-3.86-.8L152.17.9l-1.5 1.61-5.26-1.07h-5.9v1.82L128.29.97l-2.46 2.68-10.63-2.2-16.8.05-.58 1.24-2.58-.54-12.18-1.13-2.25 2.74-9.4-1.93-13.62-.75-1.24 1.66-3.54-.75-8.48-.75-.42.21a16 16 0 0 0-3.33 1.93l-5.31-1.07-12.18-1.13-1.56 1.94-4.94-1.02-9.01-.86-.54.32a14.67 14.67 0 0 0-3.6 2.79l-.1.16-.05.16c-.65 1.56-.7 3.54-.49 6.01l.06.65 7.67 2.9c.22.9.22 1.98.05 2.89l-7.08-.8-2.09 4.23 28.87 5.85 10.08.97.54-.38c.54-.37 1.4-1.02 2.25-1.82l7.46 1.55 10.57.49 1.24-2.1 6 1.24 10.68.96 1.13-1.87 7.4 1.55h5.96v-1.28l3.44.7 5.2.85 1.77-1.93 6.44 1.29 10.57.48 1.23-2.15 9.34 1.94h5.9v-4.08l19.75 4.08h5.9v-1.78l11.27 2.31 1.6-1.71 5.86 1.18h5.9v-1.88l8.9 1.88h5.9v-3l13.15 2.67 10.04.49.8-1.61 5.48 1.12 10.57.49.96-1.67 6.92 1.45h5.96V25.6l3.43.7 5.2.86 3.39-3.65-4.08-1.02z"
    fill="#000" class="sh-logo-hor-shadow"/>
  <path
    d="M174.81 28.22l-10.62-2.14v1.5h-7.14l-.16-.05-18.4-3.81v3.86h-7.14l-8.58-1.77-1.18 2.04-11.54-.54-5.69-1.18-1.77 1.93-5.9-1.02-2.1-.43v1.02h-7.18l-6.6-1.4-1.02 1.78-11.65-1.02-5.1-1.07-1.12 1.98-11.54-.54-6.81-1.39c-.75.7-1.5 1.23-1.88 1.5l-.91.65-10.79-1.02L0 21.03l2.79-5.63 6.76.75c0-.54 0-1.02-.05-1.5l-7.73-2.9-.05-1.07c-.16-2.58-.16-4.62.53-6.28l.11-.27.22-.21c.9-1.02 2.2-1.99 3.8-2.95l.86-.54 9.6.91 4.2.86 1.5-1.88 13.03 1.24 4.67.96A14.5 14.5 0 0 1 43.35.8l.76-.32 9.01.86 2.68.6L56.98.37l14.54.8 8.59 1.77L82.26.27 95.29 1.5l1.61.32.54-1.07 17.7-.05 10.04 2.09 2.47-2.68 10.62 2.14V.65h7.14l4.67.96 1.5-1.61 8.2 1.45v.05l2.1.43.65-1.29 17.7-.05 2.8.59 1.01-1.13 7.57 1.35v.05l9.5 1.93 2.68-3.33 13.04 1.24 1.71.37 1.18-1.55 14.54.8 29.4 5.96.54 1.07a13.12 13.12 0 0 1 1.45 6.55l-.1.9-2.47 1.24 2.2 5.15 4.72.97-4.61 5-5.9-1.03-2.1-.43v1.02h-7.19l-6.17-1.29-.86 1.56-11.53-.54-4.56-.9-.76 1.5-11.05-.54-11.8-2.42v2.74h-7.14l-7.67-1.61v1.6h-7.14l-5.26-1.06-1.45 1.87zM30.53 25.65l9.5.91.16-.1a25.2 25.2 0 0 0 2.15-1.78l.42-.43 8.05 1.67 9.71.43 1.3-2.26 6.8 1.4 9.77.86 1.18-1.99 8.16 1.72h4.72v-1.56l4.78.97 4.4.75 1.82-1.93 7.08 1.45 9.71.42 1.3-2.25 10.08 2.1h4.67v-4.35l20.98 4.29h4.67v-2.04l11.85 2.42 1.61-1.72 6.5 1.34h4.66v-2.15l10.15 2.1h4.66v-3.28l14.38 2.95 9.13.43.85-1.77 6.34 1.3 9.7.42 1.03-1.77 7.72 1.6h4.72v-1.55l4.78.97 4.4.75 2.15-2.3-2.95-.6-2.42-5.69-2.1-.64 4.46-2.25v-.16c.16-1.77-.32-3.97-1.34-5.9l-.16-.33-28.22-5.74-12.83-.7-1.34 1.77-3.33-.7-11.43-1.07-2.79 3.5-12.07-2.37-4.94-.86-1.07 1.18-4.02-.86h-15.94l-.8 1.61-5.1-1.02-5.63-1.02-1.5 1.67-5.86-1.18h-4.66V4.4l-11.86-2.41-2.47 2.68-11.21-2.36H99.05l-.7 1.4-3.49-.7-11.42-1.08-2.31 2.85-10.09-2.04-12.82-.7-1.34 1.77-4.3-.91-8-.75-.15.05a12.48 12.48 0 0 0-3.06 1.82l-.43.33-5.85-1.18-11.43-1.08-1.6 1.99-5.7-1.18-8.47-.8-.16.1a15.38 15.38 0 0 0-3.38 2.58l-.06.1c-.59 1.45-.64 3.33-.48 5.74v.22l7.62 2.9.1.37c.22.97.22 2.1.11 3.11l-.1.8-7.3-.8-1.4 2.85 27.7 5.58z"
    fill="#FDE1C0" class="sh-logo-hor sh-logo-hor-letters"/>
  <path
    d="M13.9 6.22l2.47-4.02-9.02-.86-.54.32a14.67 14.67 0 0 0-3.6 2.8l-.1.15-.05.17c-.65 1.55-.7 3.54-.48 6l.05.65 7.67 2.9c.22.9.22 1.98.06 2.9l-7.09-.81-2.09 4.24 10.09.96.53-.37a17 17 0 0 0 3.33-2.95l.1-.11.06-.16c.7-1.88.8-4.08.27-6.6l-.1-.6-7.41-2.62c-.06-.64-.06-1.56.1-2.52l5.75.53zM31.93 6.39l3.16-3.98-12.18-1.18-3.38 4.24v13.15l2.04 2.25 10.57.49 2.36-4.14-9.07-.43v-4.02h6.17V9.12h-6.17V5.8l6.5.6zM49.9 6.17l2.74-4.08-8.48-.75-.43.22a14.74 14.74 0 0 0-5.96 4.56l-.16.16-.05.21a23.05 23.05 0 0 0-.64 4.78c0 3.16.7 5.95 2.09 8.58l.32.65 10.68.96 2.47-4.18-8.32-.65v-.1l-.1-.27c-.92-2.2-1.4-4.4-1.4-6.66 0-2.41.59-3.59 1.12-3.97l6.12.54zM70.24 11.32l-.75-.21 3.21-1.67.06-.53a11.9 11.9 0 0 0-1.4-6.23l-.32-.7-13.63-.75-2.9 3.87 3.98.21.05 15.78h5.96v-7.25l.7.22 2.73 6.44 5.2.86 3.38-3.65-3.75-.65-2.52-5.74zm-5.8-1.45V5.7l1.99.1c.32.81.48 1.67.53 2.69l-2.52 1.4zM91.65 6.28l3.21-3.97-12.18-1.18-3.43 4.24.05 13.09 2.04 2.3 10.57.49 2.36-4.19-9.06-.43v-3.97h6.11V9.01h-6.17V5.7l6.5.59zM96.15 5.58l6.28-.05v15.45h5.9V5.53h4.62l1.93-3.97-16.8.05-1.93 3.97zM145.09 1.5h-5.9l.05 7.84h-5.26V2.58l-6-1.5-3.28 3.59 3.38.8.05 15.51 5.9-.05-.05-8.1h5.26l.05 7.18 5.96 1.45 3.27-3.6-3.38-.8-.05-15.56zM148.47 4.61l4.18.76.06 15.56h5.9l-.06-18.78-6.7-1.18-3.38 3.64zM161.18 5.47l6.28-.05.06 15.45h5.9l-.05-15.45h4.6l1.94-3.97h-16.8l-1.93 4.02zM190.37 2.1l-6-1.08-3.33 3.65 3.43.64.06 12.99 2.03 2.25 10.04.48 2.04-4.18-8.21-.38-.06-14.38zM213.23 6.06l3.17-3.97L204.22.91l-3.38 4.24v13.1l2.04 2.3 10.57.48 2.36-4.18-9.07-.43v-3.97h6.17V8.8h-6.17V5.42l6.5.64zM235.5 16.74L233.03 11l-.75-.21 3.22-1.67.05-.53a11.9 11.9 0 0 0-1.4-6.23l-.31-.7L220.2.91l-2.9 3.87 3.97.21.05 15.78h5.96v-7.25l.7.22 2.73 6.43 5.2.86 3.39-3.65-3.81-.64zm-8.21-7.19V5.37l1.99.1c.32.8.48 1.67.53 2.69l-2.52 1.4zM122.66 13.79c-.1-.05-.22-.16-.22-.27v-.16l.22-1.18c0-.1.05-.16.05-.27.06-.1.06-.27.06-.37.1-1.61-1.67-3-3.87-3.06h-.32c-2.25-.06-4.08 1.18-4.18 2.84v.38c0 .1 0 .16.05.27l.05 1.23v.16c0 .1-.1.22-.27.27-.32.1-.42.37-.37.64l.27.8c.1.33.59.49 1.02.44.27-.06.53 0 .7.16l.1.1c.06.06.1.11.1.22v.21c-.04.86.92 1.24 2.16 1.24h.05c1.18.05 2.2-.27 2.25-1.13v-.21a.4.4 0 0 1 .11-.22l.1-.1c.22-.11.49-.17.7-.11.43.1.92 0 1.08-.32l.37-.76c.22-.37.11-.64-.21-.8zm-6.44.91c-.64 0-1.13-.53-1.13-1.18 0-.05 0-.1.06-.21l.05-.22c.22-.43.64-.7 1.13-.7.37 0 1.02.06 1.34.38l.1.1s.17.6.17.76c0 .32-.43.48-.75.7-.33.16-.6.37-.97.37zm2.58 1.13a.4.4 0 0 1-.38-.27l-.05-.05-.06.05c-.05.16-.27.27-.43.27a.42.42 0 0 1-.43-.43c0-.16.11-.27.22-.38a1 1 0 0 0 .32-.37l.06-.1.05-.06.05-.11c.1-.16.38-.16.48 0l.11.32c.06.16.16.32.27.43.1.05.21.22.21.38s-.21.37-.42.32zm1.77-1.02c-.33 0-.6-.27-.92-.48-.32-.22-.7-.43-.7-.7 0-.27.11-.65.33-.8.37-.27.96-.27 1.4-.27.64 0 1.12.53 1.12 1.18a1.23 1.23 0 0 1-1.23 1.07z"
    fill="#FDE1C0" class="sh-logo-hor sh-logo-hor-skull"/>
</svg>