<svg id="Layer_1_xA0_Image_1_" xmlns="http://www.w3.org/2000/svg" width="117.12" height="170.64" viewBox="0 0 117.12 170.64"><g id="nein" fill-rule="evenodd" clip-rule="evenodd"><path d="M90.94 32.65v16.77c-.5.31-1.04.19-1.54.19-16.24.01-32.48.06-48.72-.04a9.89 9.89 0 0 0-6.68 2.4c-1.04.85-1.5.83-2.22-.3a92.14 92.14 0 0 1-6.23-11c-.8-1.71-.27-3.02 1.52-4.38 1.68-1.28 3.33-2.6 5.01-3.86.66-.5.75-1.07.45-1.78a97.06 97.06 0 0 0-5.4-10.66 38.52 38.52 0 0 1-1.8-3.51c-.36-.83-.15-1.61.53-2.3 2.44-2.42 5.46-3.65 8.75-4.36 1.14-.25 2.3-.2 3.45-.2 11.4 0 22.8-.09 34.2.05 3.2.04 6.14-.57 8.84-2.1 1.65-.92 2.86-.64 4.06.54a37.43 37.43 0 0 1 6.47 8.24c1.76 3.1.63 4.02-1.22 5.54a20.75 20.75 0 0 1-4.9 2.96c-1.7.73-3.44 1.12-5.34 1.11-12.12-.05-24.24 0-36.35-.04-2.5-.01-4.64.85-6.55 2.26-1.34 1-1.18 2.32.2 3.51.8.69 1.78.8 2.82.8h49.07c.52 0 1.04-.07 1.58.16zM90.93 146.6c.03.5.06.81.06 1.13 0 4.92-.02 9.84.02 14.75.01.97-.28 1.21-1.22 1.2-5.2-.03-10.4 0-15.6 0-11.35 0-22.71.04-34.07-.05-2.2-.01-3.92.84-5.58 2.04-1.92 1.38-1.71 1.65-3.23-.69-1.78-2.73-3.35-5.59-4.96-8.42-.16-.28-.3-.57-.4-.87-1.1-3.2-.84-3.9 2.14-6.16 1.37-1.03 2.7-2.1 4.05-3.15.53-.42.63-.87.37-1.57-1.26-3.42-3.08-6.56-4.81-9.75-.76-1.4-1.57-2.77-2.3-4.18-.58-1.14.13-2.8 1.6-3.75 3.28-2.1 6.76-3.4 10.78-3.37 12.07.1 24.15.02 36.23.04 2.65 0 4.94-1.15 7.26-2.18 2.02-.88 2.3-.86 3.89.67a33.55 33.55 0 0 1 6.91 8.94c.6 1.2.6 2.5-.38 3.42-3.18 2.95-6.64 5.34-11.26 5.32-12.08-.03-24.16 0-36.24-.01-2.24 0-4.33.52-6.2 1.79-.85.57-1.82 1.21-1.64 2.3.18 1.13 1.15 1.85 2.2 2.33.56.25 1.17.23 1.77.23h50.61zM59.46 117.8c-5.26.15-9.98-1.66-14.6-3.94-4.37-2.15-7.94-5.28-11.4-8.6-2.3-2.2-4.74-4.26-6.75-6.76-.72-.9-1.48-1.75-1.99-2.8-.27-.59-.26-1 .27-1.47 2.2-1.96 4.64-3.61 6.94-5.44a98.4 98.4 0 0 1 9.53-6.59c1.71-1.06 3.1-.9 4.62.1 2.1 1.37 4.01 3 5.77 4.78 3.5 3.56 6.99 7.12 10.47 10.7.75.76 1.44 1.59 2.13 2.41.48.58.93.55 1.55.2a21.93 21.93 0 0 0 5.42-4.65c2.36-2.63 4.64-5.34 6.78-8.15l1.35-1.81c.53-.69 1.08-.87 1.8-.18a69.07 69.07 0 0 1 9.18 10.65c.4.6.43 1.15.23 1.8-.61 1.92-1.89 3.44-3.16 4.9-2.78 3.17-5.67 6.24-9.24 8.59a38.38 38.38 0 0 1-16.75 6.25c-.71.08-1.44.01-2.15.01zm-9.66-11.24c1.3.08 2.8-.16 4.3-.35 1.28-.16 2.54-.44 3.54-1.34.73-.65 1.12-1.32.5-2.38a22.89 22.89 0 0 0-6.1-6.64c-.73-.56-1.6-1.12-2.74-.45-3.7 2.14-7.2 4.56-10.66 7.04-.77.55-.7 1.24.19 1.6.73.32 1.5.55 2.26.79 2.77.87 5.5 1.89 8.7 1.73zM64.13 57.8c8.6 0 17.2.02 25.79-.02 1.06 0 1.35.27 1.33 1.33-.06 4.8-.02 9.6-.02 14.4 0 1.64 0 1.64-1.6 1.64-15.76 0-31.51.05-47.27-.05-2.74-.02-5.13.4-7.05 2.43-.62.65-1.04.49-1.58-.06a73.33 73.33 0 0 1-8.74-10.7c-.64-.96-.46-2.02.51-3 1.65-1.69 3.69-2.78 5.81-3.73 1.02-.46 2.07-.82 3.09-1.28 2.18-1 4.48-.98 6.81-.97 7.64.03 15.28.01 22.91.01zM13.48 59.24c1.42.15 2.44.96 3.37 1.77a13.12 13.12 0 0 1 2.55 16.64c-.97 1.57-2.82 1.78-4.17.51a33.24 33.24 0 0 1-4.72-5.7c-.75-1.12-.73-2.61.25-3.51 1.82-1.69 2.23-3.88 2.45-6.16.1-1.15.17-2.3.27-3.55zM110 85.93c.85 2.08-.7 2.86-1.79 3.8-.95.82-2.03 1.48-2.94 2.63h4.81c.2.75.13 1.4.06 2.15h-8.6c-.47-1.68-.25-2.12 1.68-3.56.83-.62 1.61-1.3 2.4-1.96.15-.12.24-.3.58-.76-1.45 0-2.65-.06-3.85.02-.95.07-1.03-.42-1.03-1.16 0-.73.06-1.2 1.02-1.18 2.58.06 5.16.02 7.66.02zM110.42 77.36c-.02 2.94-1.78 4.84-4.55 4.87a4.65 4.65 0 0 1-4.76-4.77 4.7 4.7 0 0 1 5.07-4.96c2.41.05 4.27 2.18 4.24 4.86zm-2.16.15a2.47 2.47 0 0 0-2.26-2.6c-1.24-.09-2.6 1.07-2.65 2.25-.06 1.38 1.17 2.8 2.5 2.69 1.32-.13 2.32-.81 2.41-2.34zM106.73 101.54c-2.05.1-3.86-.24-5.58-1.07-.53-.25-.78-.57-.54-1.1.24-.55.62-.87 1.32-.6a11.99 11.99 0 0 0 9.19.01c.62-.26.96-.1 1.24.48.29.6.15.97-.45 1.23-1.7.73-3.45 1.2-5.17 1.05zM106.72 65.86c1.64-.19 3.34.33 5 1 .45.18 1.1.39.75 1.1-.27.51-.6 1.01-1.37.69a11.68 11.68 0 0 0-9.4.06c-.66.29-.8-.3-1.02-.7-.26-.5-.05-.78.42-1.04 1.25-.69 3.35-1.15 5.62-1.1z"/></g></svg>