<svg id="Layer_2_xA0_Image_1_" xmlns="http://www.w3.org/2000/svg" width="42.96" height="32.88"><g fill-rule="evenodd" clip-rule="evenodd"><path d="M26.4.24c5.03 1.43 10.06 2.85 15.08 4.3.54.16 1.43.1 1.41.84 0 .76-.9.66-1.44.77-6.8 1.46-13.6 2.9-20.4 4.32-1.83.38-3.66.29-5.46-.22L1.63 6.3c-.15-.04-.31-.06-.46-.12-.32-.14-.75-.2-.7-.69.03-.45.45-.53.79-.6 1.68-.37 3.36-.72 5.04-1.07L22.37.42c.15-.02.28-.12.43-.18h3.6zM43.1 28.18l-6.6 1.4c-5 1.05-10 2.09-15 3.17-2.04.45-4.04.4-6.04-.17-4.54-1.29-9.07-2.58-13.61-3.81-1.06-.3-1.5-.76-1.46-1.91.08-2.96.05-5.92 0-8.88 0-.9.37-1.23 1.2-1.45a7.81 7.81 0 0 1 4.56.13c2.85.91 5.77 1.62 8.63 2.49 2.44.74 4.85.8 7.33.25 5.43-1.2 10.87-2.29 16.3-3.47 1.52-.34 2.8.37 4.15.78.45.14.61.7.3.98-.58.54-.42 1.17-.42 1.78-.02 2.4-.02 4.8 0 7.2 0 .45-.16.96.67 1.5z"/><path d="M19.02 14.64c-1.3-.02-2.28-.17-3.24-.44-4.73-1.33-9.46-2.65-14.18-4-.43-.12-1.1-.1-1.11-.71-.02-.72.71-.63 1.17-.77a6.84 6.84 0 0 1 4.33.07c2.38.79 4.88 1.25 7.24 2.1 3.53 1.24 6.98 1.2 10.59.34 4.92-1.2 9.9-2.14 14.87-3.2 1.42-.3 2.63.43 3.92.8.24.06.4.28.32.56-.07.31-.34.42-.62.48-1.25.28-2.5.56-3.75.82l-18.16 3.8c-.55.1-1.11.12-1.38.15z"/><path d="M18.79 18.56c-1.06-.02-2.08-.2-3.08-.49L1.64 14.13a7.04 7.04 0 0 1-.8-.27c-.22-.1-.4-.27-.4-.54a.53.53 0 0 1 .45-.5c1.35-.26 2.64-.85 4.1-.4 3.36 1.01 6.76 1.9 10.13 2.88 2.25.66 4.47.69 6.75.2 5.5-1.2 11.01-2.32 16.5-3.53 1.54-.34 2.8.36 4.17.72.23.06.43.25.39.53-.05.4-.39.5-.7.57l-4.55.98c-5.63 1.18-11.25 2.37-16.88 3.54-.66.13-1.34.17-2.02.25z"/></g></svg>