<svg id="Layer_1_xA0_Image_1_" xmlns="http://www.w3.org/2000/svg" width="95.04" height="369.12" viewBox="0 0 95.04 369.12"><g fill-rule="evenodd" clip-rule="evenodd"><g id="president-background" fill="#fff"><path d="M20.77 196.08h-5.69c-2.63-.02-3.98.8-4.95 3.26-1.73 4.4-1.6 8.83.4 13.05 2.81 5.95 5.87 11.8 8.81 17.68.46.9.88 1.82 1.4 2.9-2.21 0-4.17.08-6.12-.03-1.27-.07-2.33.27-3.1 1.2a9.05 9.05 0 0 0-1.58 2.64c-1.53 4.3-1.3 8.6.67 12.68 3.05 6.34 6.27 12.6 9.41 18.88.22.44.42.9.69 1.48-2.29 0-4.37-.08-6.44.04-.81.05-1.82.31-2.37.86a8.42 8.42 0 0 0-1.99 3.05c-1.62 4.61-1.08 9.12 1.08 13.46l8.28 16.5c.48.94.93 1.9 1.47 3.02-2.11 0-4.03.1-5.93-.03a4.06 4.06 0 0 0-4.2 2.39c-2.4 4.71-2.23 9.49.06 14.16 3.38 6.89 6.9 13.7 10.3 20.58a29.75 29.75 0 0 1 2.22 5.53c.76 2.93.73 5.97-.96 8.58-.81 1.25-.86 2.36-.79 3.75.4.03.74.07 1.09.07 12.36.1 24.71.19 37.07.27 6.72.04 13.44-.03 20.16.14 2.29.05 3.67-.89 4.53-2.78 2.24-4.94 1.74-9.82-.6-14.56-3.04-6.16-6.16-12.28-9.25-18.43-.16-.32-.27-.68-.43-1.1 1.97 0 3.77-.1 5.55.04 1.84.14 3.24-.47 4.22-1.95.5-.76.91-1.6 1.17-2.47 1.25-4.2.98-8.33-.93-12.25-3.12-6.4-6.36-12.73-9.54-19.09-.17-.33-.3-.68-.51-1.17 2.18 0 4.18-.04 6.17.02 1.25.04 2.33-.31 3.08-1.28a9.72 9.72 0 0 0 1.61-2.76 16.18 16.18 0 0 0-.76-12.48c-3.09-6.4-6.34-12.73-9.52-19.09l-.64-1.34c1.95 0 3.7-.03 5.44 0 2.93.06 4.36-.88 5.37-3.7a16.33 16.33 0 0 0-.76-13.02c-2.92-6.04-6-12.01-9-18.01-.32-.66-.62-1.34-.99-2.13.49-.03.8-.08 1.1-.07 1.72.04 3.43.07 5.15.14 1.9.07 3.6-1.24 4.48-3.7 1.6-4.48 1.3-8.92-.75-13.16-3.05-6.29-6.24-12.5-9.37-18.76-.2-.4-.36-.82-.58-1.34 2 0 3.8-.1 5.57.03 1.88.14 3.32-.47 4.28-2.05.51-.84.95-1.77 1.2-2.71 1.2-4.48.62-8.77-1.47-12.9-3.06-6.02-6.07-12.07-9.1-18.1-.16-.34-.3-.69-.51-1.18 2.2 0 4.2-.05 6.2.02a3.65 3.65 0 0 0 3.3-1.56c.57-.8 1.1-1.68 1.4-2.61 1.45-4.57.93-9-1.2-13.26-2.94-5.9-5.92-11.78-8.87-17.67-.28-.55-.52-1.12-.86-1.86 1.97 0 3.74-.17 5.47.04 2.54.3 4.07-.89 5-3.02a15.44 15.44 0 0 0-.21-13.13c-3-6.4-6.28-12.67-9.44-19-.23-.47-.41-.96-.66-1.53 2.1 0 3.97.08 5.84-.04.94-.06 2.1-.22 2.73-.81a8.4 8.4 0 0 0 2.19-3.32 16.34 16.34 0 0 0-.93-12.7c-3.76-7.66-7.66-15.26-11.47-22.9a13.9 13.9 0 0 1-1.09-9.7c.23-.94.58-2.08 1.27-2.64 1.29-1.05.67-2.15.74-3.36H72c-19.28 0-38.56 0-57.84-.02-1.27 0-2.28.54-2.96 1.53-.62.91-1.2 1.92-1.52 2.96a17.08 17.08 0 0 0 1.3 12.9c2.98 5.97 5.98 11.92 8.98 17.88.2.41.38.84.66 1.46-1.96 0-3.72.13-5.45-.03-2.64-.24-4.18 1.08-5.06 3.32-1.82 4.61-1.47 9.18.64 13.6 2.21 4.6 4.58 9.14 6.87 13.71l3.14 6.32c-2.14 0-4.01.13-5.86-.04-2.3-.2-3.7.9-4.54 2.78-2.16 4.8-1.79 9.6.45 14.24 2.7 5.61 5.57 11.15 8.37 16.73.49.97.95 1.96 1.52 3.13-2.08 0-3.92.1-5.74-.03-2.24-.15-3.69.88-4.58 2.78a15 15 0 0 0-.17 12.79c2.45 5.55 5.34 10.9 8.04 16.34l2.5 5.03h-5.77c-2.61 0-3.94.88-4.9 3.36-1.83 4.76-1.38 9.42.83 13.93 2.4 4.9 4.92 9.76 7.38 14.65l2.47 4.97z"/><path d="M76.24 64.32c-.9 0-2.01.05-3.12-.03-.3-.02-.74-.34-.86-.63-1.47-3.47-1.82-7-.4-10.58.13-.33.3-.65.5-.94.62-.87 1.23-.9 1.71.04.46.87.9 1.81 1.04 2.77.45 3.09.76 6.2 1.13 9.37zM76.2 137.9c-.72 0-1.68-.06-2.62.02-.91.08-1.36-.25-1.65-1.12-1.16-3.48-1.46-6.94.15-10.36.22-.46.71-.8 1.07-1.2.4.4 1.01.73 1.18 1.21.45 1.26.83 2.57 1.02 3.9.36 2.46.57 4.94.86 7.55zM76.2 248.6c-.93 0-2.1.03-3.29-.02-.24-.01-.58-.27-.68-.5-1.52-3.6-1.79-7.25-.2-10.91.1-.26.25-.5.42-.73.49-.66 1.12-.8 1.48 0a16 16 0 0 1 1.36 3.91c.43 2.69.61 5.41.92 8.25zM76.22 101.03c-.9 0-2.02.04-3.13-.03-.32-.02-.79-.3-.9-.58-1.46-3.57-1.76-7.18-.17-10.8.23-.5.76-.86 1.14-1.29.42.44 1.02.81 1.23 1.34.43 1.14.8 2.34.96 3.55.36 2.54.58 5.1.87 7.8zM76.2 211.7h-1.82c-2.11 0-2.13 0-2.75-2.08-.88-2.91-.94-5.82.1-8.7.06-.16.08-.34.18-.45.43-.48.88-.95 1.33-1.41.4.45.98.84 1.19 1.37.42 1.07.75 2.2.9 3.33.36 2.59.59 5.2.88 7.94zM76.19 322.36c-.9 0-2.01.04-3.12-.03-.31-.02-.77-.3-.88-.56-1.46-3.61-1.78-7.26-.1-10.9.21-.43.72-.94 1.15-1 .3-.04.9.52 1.05.94.44 1.18.87 2.4 1.05 3.65.37 2.58.57 5.18.85 7.9zM76.22 174.77c-.94 0-2.1.03-3.25-.02-.25 0-.64-.21-.73-.42-1.53-3.65-1.83-7.34-.16-11.03.2-.45.72-1.03 1.11-1.04.37-.02.94.58 1.1 1.02a20.9 20.9 0 0 1 1.07 3.9c.36 2.46.57 4.95.86 7.6z"/></g><path d="M20.77 196.08l-2.46-4.98c-2.46-4.88-4.98-9.74-7.38-14.65-2.2-4.5-2.66-9.16-.83-13.92.95-2.48 2.28-3.36 4.9-3.36h5.76l-2.5-5.03c-2.7-5.44-5.59-10.8-8.03-16.34a15 15 0 0 1 .17-12.8c.9-1.89 2.34-2.92 4.58-2.77 1.82.12 3.66.02 5.73.02-.56-1.16-1.03-2.15-1.52-3.13-2.79-5.57-5.66-11.11-8.36-16.73-2.24-4.64-2.6-9.44-.45-14.23.84-1.88 2.25-2.99 4.53-2.78 1.85.17 3.73.03 5.87.03-1.13-2.27-2.13-4.3-3.15-6.31-2.29-4.57-4.65-9.1-6.86-13.72-2.12-4.4-2.47-8.98-.65-13.59.9-2.24 2.43-3.56 5.07-3.32 1.73.16 3.49.03 5.44.03-.28-.62-.45-1.05-.66-1.46L11 29.16a17.08 17.08 0 0 1-1.29-12.9c.31-1.05.9-2.05 1.52-2.96.68-.99 1.69-1.53 2.96-1.53 19.28.02 38.56.02 57.84.02h1.36c-.07 1.2.55 2.3-.73 3.36-.7.56-1.05 1.7-1.27 2.64-.8 3.34-.44 6.6 1.1 9.69 3.8 7.64 7.7 15.25 11.46 22.92 2 4.06 2.36 8.37.93 12.68a8.4 8.4 0 0 1-2.2 3.33c-.62.58-1.79.75-2.73.8-1.86.13-3.74.04-5.83.04.24.58.42 1.07.66 1.54 3.15 6.33 6.43 12.6 9.43 19 2 4.26 2.12 8.74.21 13.13-.93 2.13-2.45 3.32-5 3.02-1.73-.21-3.5-.04-5.46-.04.34.73.57 1.3.85 1.86 2.96 5.9 5.94 11.77 8.88 17.67 2.13 4.25 2.65 8.69 1.2 13.25-.3.93-.83 1.82-1.4 2.62a3.65 3.65 0 0 1-3.31 1.56c-2-.08-4-.02-6.2-.02.22.49.35.84.52 1.17 3.02 6.04 6.04 12.08 9.1 18.1a17.55 17.55 0 0 1 1.47 12.9c-.26.95-.7 1.88-1.2 2.72-.97 1.57-2.4 2.19-4.29 2.05-1.77-.14-3.57-.03-5.56-.03.22.52.37.94.57 1.34 3.13 6.25 6.32 12.47 9.37 18.75a16.51 16.51 0 0 1 .76 13.16c-.88 2.46-2.6 3.78-4.49 3.7-1.71-.06-3.43-.1-5.15-.13-.3-.01-.6.03-1.1.07.37.79.67 1.46 1 2.13 3 6 6.07 11.96 9 18 2.02 4.2 2.34 8.6.75 13.04-1 2.8-2.44 3.75-5.37 3.69-1.74-.03-3.48 0-5.43 0l.64 1.34c3.18 6.36 6.43 12.68 9.52 19.09 1.93 4 2.17 8.23.76 12.48-.33.99-.97 1.92-1.62 2.76-.74.96-1.83 1.32-3.08 1.28-1.99-.07-3.98-.02-6.17-.02.21.48.35.84.52 1.17 3.18 6.36 6.42 12.7 9.53 19.08a16.45 16.45 0 0 1 .93 12.25 9.45 9.45 0 0 1-1.17 2.47c-.98 1.5-2.38 2.1-4.21 1.96-1.78-.14-3.58-.03-5.56-.03.16.4.27.76.44 1.1 3.08 6.14 6.21 12.26 9.25 18.42 2.33 4.74 2.84 9.62.6 14.56-.86 1.9-2.25 2.83-4.53 2.78-6.72-.17-13.44-.1-20.16-.14l-37.08-.27c-.34 0-.69-.05-1.08-.08-.07-1.39-.03-2.5.78-3.75 1.7-2.6 1.73-5.64.96-8.57-.5-1.91-1.34-3.75-2.22-5.53-3.4-6.88-6.91-13.7-10.3-20.58-2.29-4.68-2.45-9.45-.05-14.16a4.07 4.07 0 0 1 4.2-2.4c1.9.13 3.81.04 5.93.04-.55-1.12-1-2.08-1.48-3.03-2.75-5.5-5.53-10.99-8.27-16.5-2.17-4.33-2.7-8.84-1.08-13.46a8.42 8.42 0 0 1 1.99-3.05c.54-.54 1.55-.8 2.37-.85 2.07-.12 4.15-.04 6.43-.04-.27-.58-.46-1.04-.68-1.48-3.15-6.3-6.37-12.55-9.42-18.88a16.05 16.05 0 0 1-.67-12.69c.34-.95.94-1.85 1.59-2.64.76-.93 1.82-1.27 3.1-1.2 1.94.12 3.9.04 6.12.04-.52-1.08-.95-2-1.4-2.9-2.95-5.9-6-11.73-8.81-17.69-2-4.22-2.14-8.65-.4-13.04.96-2.45 2.31-3.28 4.95-3.26h5.68zm4.65 162.82h1.41l52.53.39c1.72 0 2.05-.19 2.64-1.81 1.2-3.3 1.23-6.67-.27-9.8-3.5-7.32-7.17-14.55-10.83-21.78-1.63-3.21-3.01-6.48-2.75-10.16.15-2 .55-4 .86-6.12H15.69c-2.15 0-2.6.33-3.21 2.4a13.7 13.7 0 0 0 1.04 10.52c3.48 6.83 6.85 13.72 10.36 20.53 1.83 3.53 2.91 7.18 2.47 11.16-.17 1.52-.6 3.02-.93 4.67zM69.3 162.17c-.5-.05-.8-.1-1.12-.1-17.7-.01-35.42 0-53.13-.03-1.14 0-1.79.45-2.2 1.46a13.14 13.14 0 0 0 .4 10.93c3.36 6.97 6.91 13.86 10.35 20.8.35.7.79.87 1.5.87l47.74-.04c1.29 0 2.33.43 3.16 1.4 1.47 1.71 1.98 3.78 2.23 5.96.23 2.01.37 4.05.8 6.03.18.81 1.01 1.49 1.55 2.23.53-.74 1.28-1.42 1.56-2.24 1.33-3.9.63-7.63-1.19-11.23-3.55-7.06-7.14-14.1-10.63-21.2a23.59 23.59 0 0 1-1.86-5.28c-.7-3.17-.42-6.34.84-9.56zm-.03-147.42c-.35-.04-.58-.09-.8-.09-17.76 0-35.51.01-53.27-.03-1.44 0-2.1.66-2.52 1.87-1.45 4.25-.73 8.24 1.27 12.14 3.2 6.27 6.35 12.55 9.48 18.84.37.74.77 1.04 1.63 1.04 15.83-.03 31.67 0 47.5-.05 1.93 0 3.2.83 4.13 2.35.43.7.84 1.5.97 2.3.34 2.04.44 4.12.78 6.15.24 1.4.6 2.8 1.14 4.12.5 1.23 1.32 1.2 1.96.06.31-.55.58-1.15.75-1.76 1.05-3.68.5-7.2-1.2-10.57-3.57-7.14-7.14-14.28-10.77-21.4-2.14-4.2-2.8-8.53-1.63-13.11.16-.6.37-1.2.58-1.86zm-.08 184.2h-.82l-53.03-.01c-1.75 0-2.1.24-2.68 1.94-1.27 3.79-.94 7.49.83 11.04 3.31 6.66 6.69 13.28 9.98 19.94.42.83.89 1.16 1.8 1.15 15.53-.03 31.05-.03 46.56-.04.6 0 1.2-.08 1.78.03 2.23.4 3.36 2.05 3.84 4 .53 2.15.6 4.42 1 6.6.25 1.4.62 2.8 1.15 4.12.47 1.12 1.32 1.1 1.92.04.33-.58.61-1.22.8-1.86 1.11-4.06.19-7.8-1.68-11.44-3.54-6.9-6.97-13.84-10.47-20.76a17.94 17.94 0 0 1-1.91-10.56c.17-1.37.6-2.7.93-4.2zm-.07 73.9c-.08-.02-.19-.07-.3-.07l-53.88-.01c-1.09 0-1.68.43-2.07 1.4-1.57 3.88-1.24 7.7.55 11.37 3.27 6.67 6.67 13.27 9.96 19.93.47.95.97 1.31 2.06 1.3 15.56-.03 31.12.03 46.68-.06 2.91-.02 4.52 1.46 5.12 3.6.62 2.2.73 4.54 1.19 6.8.3 1.55.7 3.1 1.3 4.55.4 1 1.07.94 1.7.06.18-.26.33-.55.44-.84 1.56-3.84 1.19-7.64-.59-11.25-3.48-7.1-7.04-14.17-10.67-21.2-1.82-3.53-2.82-7.18-2.39-11.15.17-1.48.6-2.94.9-4.43zm.17-36.97H15.39c-1.85 0-2.16.2-2.76 1.94a13.58 13.58 0 0 0 .72 10.71c3.29 6.7 6.7 13.34 10.01 20.03.47.95.99 1.31 2.08 1.31 15.72-.05 31.44-.04 47.16-.05.43 0 .88.03 1.3.13 2.03.5 3.06 2.1 3.51 3.9.55 2.14.63 4.4 1.03 6.58.25 1.4.6 2.81 1.13 4.12.5 1.22 1.34 1.2 1.97.06.34-.62.62-1.3.8-1.99.9-3.38.5-6.68-1.01-9.8-2.5-5.13-5.11-10.2-7.68-15.31-1.1-2.18-2.17-4.36-3.3-6.52a18.08 18.08 0 0 1-1.07-15.11zm.04-147.6h-1.17c-17.63 0-35.27.02-52.9-.03-1.45 0-2.13.6-2.55 1.8a13.78 13.78 0 0 0 .72 11.05c3.31 6.74 6.73 13.43 10.07 20.15.37.75.8 1.02 1.64 1.02 15.6-.02 31.2-.02 46.8-.02.55 0 1.12-.05 1.66.05 2 .37 3.19 1.8 3.67 3.57.6 2.17.74 4.45 1.15 6.68.26 1.4.58 2.8 1.02 4.15.14.45.77 1.11 1.07 1.06.46-.07.92-.63 1.23-1.09.3-.45.46-1.02.6-1.55.9-3.34.57-6.6-.94-9.69-3.2-6.52-6.55-12.96-9.74-19.5a44.16 44.16 0 0 1-3.13-7.73c-.88-3.23-.54-6.56.8-9.92zm-.46-36.87s-.28-.04-.55-.04c-17.8 0-35.59 0-53.39-.02-.96 0-1.57.35-1.95 1.23-1.74 4.07-1.33 8.05.58 11.92 3.25 6.54 6.59 13.05 9.81 19.61.51 1.04 1.12 1.32 2.2 1.32 14.76-.03 29.52-.02 44.28-.02.84 0 1.68.04 2.52-.04 1.94-.2 3.28.66 4.27 2.26 1.36 2.2 1.52 4.65 1.75 7.13.16 1.68.57 3.36 1.02 5 .13.47.77 1.12 1.17 1.11.4 0 .83-.7 1.19-1.13.19-.24.26-.58.36-.88 1.19-3.65.83-7.2-.84-10.59-3.56-7.2-7.18-14.36-10.8-21.53-1.25-2.48-2.37-5.03-2.3-7.85.06-2.45.43-4.88.68-7.48zm.06 73.78H15.74c-2.26 0-2.64.25-3.28 2.44a14.28 14.28 0 0 0 1.1 10.7c3.34 6.64 6.69 13.26 9.98 19.93.4.82.93.9 1.7.9 15.83 0 31.66.01 47.5-.01 1.65 0 2.87.67 3.69 2 .55.92 1.09 1.92 1.28 2.95.38 1.95.4 3.97.75 5.92.25 1.4.69 2.79 1.25 4.09.4.94 1.17.9 1.7 0 .4-.63.7-1.35.9-2.07 1.05-3.78.34-7.34-1.4-10.77-3.65-7.24-7.29-14.48-10.9-21.73-1.24-2.46-2.02-5.06-1.83-7.84.15-2.13.48-4.24.74-6.5zm7.32-60.87c-.37-3.17-.68-6.28-1.13-9.37a9.06 9.06 0 0 0-1.04-2.77c-.48-.93-1.1-.9-1.71-.04-.2.29-.37.61-.5.94-1.42 3.59-1.07 7.11.4 10.58.12.3.55.61.86.63 1.1.08 2.22.03 3.12.03zm-.03 73.58c-.29-2.6-.5-5.1-.86-7.55-.19-1.33-.57-2.64-1.02-3.9-.17-.48-.77-.8-1.18-1.2-.36.4-.85.73-1.06 1.19-1.62 3.42-1.32 6.88-.16 10.36.29.87.74 1.2 1.65 1.12.94-.08 1.9-.02 2.63-.02zm0 110.7c-.3-2.84-.5-5.56-.92-8.25-.22-1.34-.8-2.65-1.36-3.9-.36-.8-1-.67-1.48 0-.17.22-.31.46-.42.72-1.58 3.66-1.32 7.3.2 10.9.1.24.44.5.69.5 1.17.06 2.35.03 3.29.03zm0-147.57c-.28-2.71-.5-5.27-.86-7.81-.17-1.2-.53-2.41-.96-3.55-.2-.53-.8-.9-1.23-1.34-.39.43-.91.8-1.14 1.3-1.6 3.6-1.29 7.22.17 10.79.11.28.58.56.9.58 1.1.07 2.22.03 3.13.03zm0 110.67c-.3-2.74-.52-5.35-.87-7.94a14.7 14.7 0 0 0-.9-3.33c-.22-.53-.8-.92-1.2-1.37-.44.47-.9.93-1.33 1.4-.1.12-.12.3-.17.45a13.52 13.52 0 0 0-.11 8.7c.62 2.1.64 2.1 2.75 2.1h1.83zm-.02 110.66c-.28-2.72-.48-5.32-.85-7.9-.18-1.24-.6-2.47-1.05-3.65-.16-.41-.74-.98-1.06-.94-.42.06-.93.57-1.13 1-1.69 3.64-1.38 7.29.09 10.9.1.27.57.55.88.56 1.11.07 2.23.03 3.12.03zm.03-147.59c-.3-2.64-.5-5.13-.86-7.6-.2-1.32-.61-2.62-1.07-3.89-.15-.44-.73-1.04-1.1-1.02-.39.01-.9.6-1.1 1.05-1.68 3.68-1.38 7.37.15 11.02.09.21.48.41.73.42 1.16.05 2.31.02 3.25.02zm-4 110.15c.1.23.46.5.7.5 1.19.05 2.37.02 3.27.02-.28-2.76-.5-5.4-.85-8a14.5 14.5 0 0 0-.94-3.32c-.2-.5-.75-.86-1.14-1.28-.42.44-1.02.8-1.25 1.31"/><path d="M67.02 337.25c-.7.15-1.23.35-1.75.36-2.4.03-4.8.08-7.19-.02-1.53-.06-2.8.1-3.27 1.95-.51-.28-1-.42-1.31-.74-1.12-1.13-2.47-1.23-3.95-1.21-4 .06-8 .02-12 .02-3.28 0-3.28 0-6.46 1.82-1.76-1.85-3.6-3.72-5.34-5.69-.22-.25-.01-1.12.27-1.5.75-1.03 1.64-1.95 2.66-3.13-1.33-1.64-2.81-3.6-4.45-5.44-1.76-1.99-1.83-2.47.31-4 6.64-4.76 13.75-5.94 21.17-2.16 3.95 2.01 7.13 5.11 9.98 8.5.42.49.58 1.29.66 1.97.08.72.3 1.12 1.06 1.13.84.01 1.69.16 2.5.04 1.2-.18 2.04.3 2.65 1.22 1.45 2.18 2.86 4.4 4.46 6.88zM41.3 329c2.52 0 5.04-.09 7.55.04 1.43.07 2.12-.3 2.49-1.75.54-2.16.48-2.6-1.67-3.23-4.02-1.19-8.1-1.77-12.27-.78-2.42.57-4.65 1.5-6.07 3.7-.76 1.16-.5 1.73.87 1.96.35.06.72.05 1.07.05h8.03zM39.53 186.45c-2.07-2-3.95-3.83-5.87-5.64-.78-.74-.61-1.4.1-2.03a9.17 9.17 0 0 1 6.16-2.55c7.92-.02 15.84-.02 23.76.02.4 0 1.03.36 1.13.68.76 2.56 1.42 5.15 2.14 7.85h-2.27c-7.16 0-14.32.03-21.48-.01-1.43-.01-2.72.08-3.67 1.68zM26.88 177.1c3.38 1.36 5.66 4.95 5.25 8.12-.07.5-.36 1.13-.75 1.35-.29.17-1-.1-1.35-.4a44.05 44.05 0 0 1-2.89-2.68c-.53-.53-.48-1.08-.26-1.84.3-1.06.2-2.24.22-3.37 0-.34-.12-.68-.22-1.19zM24.64 28.34h5.49c.8 0 1.37-.18 1.85-.98.24-.39 1.21-.4 1.86-.43.3-.02.62.28.92.47.34.22.67.7 1 .7 7.27.03 14.55.08 21.82-.03 1.1-.02 2.2-.77 3.69-1.33 1.47 1.72 3.21 3.63 4.77 5.69.29.38.03 1.5-.35 2a4.36 4.36 0 0 1-3.64 1.72c-7.43-.03-14.86-.01-22.3-.01h-2.54l.84 3.53c-.76 0-1.44.06-2.09-.03-.26-.03-.57-.37-.68-.64-1.95-4.68-5.38-7.83-10-9.76-.3-.11-.53-.37-.78-.56l.14-.34zM64.7 226.15c-2.57-1.2-4.46-2.89-5.59-5.26-1.25-2.63.56-4.91 1.25-7.34-1.1-.63-1.89-.07-2.46.63-1.26 1.53-2.4 3.17-3.6 4.76-1.27 1.65-2.41 3.4-3.84 4.88-1.93 1.99-4.37 2.3-6.85 1.14-3.77-1.75-6.76-4.5-9.28-7.77-.63-.82-.81-1.61-.13-2.59.75-1.07 1.3-2.28 1.94-3.44.38-.7.91-.89 1.57-.4 1.08.82 2.2 1.6 3.21 2.5 1.13 1 .92 2.31.45 3.55-.37.97-.9 1.87-1.3 2.83-.12.27-.06.63-.08.94.27-.1.63-.13.8-.33 1.43-1.5 2.84-3.02 4.2-4.58 1.8-2.08 3.49-4.26 5.33-6.3 1.77-1.96 4.02-2.2 6.36-1.2 1.16.5 2.36 1.1 3.27 1.94 2.21 2.07 4.27 4.3 6.39 6.48.52.53.64 1.02.15 1.76-1.34 2.04-1.44 4.44-1.7 6.78l-.09 1.02zM38.6 299.71a15.99 15.99 0 0 1-5.29-5.38c-.17-.29-.06-.87.12-1.22.45-.88.96-1.75 1.56-2.54.44-.59.37-.97-.15-1.41-1.28-1.1-2.53-2.2-3.94-3.44.48-.76.87-1.6 1.45-2.26 1.13-1.28 2.63-1.42 4.04-.45 1.1.74 2.12 1.57 3.2 2.33.8.58.91 1.2.32 2.01-.42.56-.76 1.18-1.22 1.91.45.07.7.14.96.14 7.88.02 15.75.05 23.62 0 1.11 0 1.6.28 1.84 1.39.52 2.3 1.2 4.54 1.86 7.01h-1.58c-7.72 0-15.43.02-23.14-.02-1.54-.01-2.88.15-3.65 1.94zM34.05 250.32c2.14-1.95 4.25-3.84 6.3-5.79 1-.95 1.97-.74 2.91-.06 1.97 1.43 3.92 2.9 5.84 4.4a93.4 93.4 0 0 1 4.87 4.07c.85.77 1.53.66 2.08-.17 1.19-1.8 2.28-3.64 3.4-5.48.28-.47.5-.98.92-1.83 2.23 2.08 4.35 3.98 6.34 6.01.29.3.14 1.25-.08 1.78-3.01 7.1-10.11 10.24-16.85 7.93-5.98-2.05-10.69-5.96-15.23-10.14-.14-.13-.23-.32-.5-.72zm13.36 6.36c1.48-.23 2.57-.3 3.6-.58 1.23-.34 1.48-1.16.58-2.03a31.67 31.67 0 0 0-3.98-3.24c-.38-.26-1.3-.2-1.7.08-1.33.94-2.55 2.04-3.8 3.1-.55.45-.52.94.16 1.16 1.82.57 3.65 1.08 5.14 1.5zM33.86 103.84l6.87-6.2c.67-.6 1.4-.52 2.08-.02 2.87 2.16 5.73 4.33 8.58 6.52.92.7 1.81 1.44 2.65 2.24.74.7 1.4.6 1.92-.13a84.2 84.2 0 0 0 2.86-4.42c.53-.87.96-1.8 1.57-2.99 2.16 2 4.2 3.83 6.14 5.78.32.33.38 1.23.19 1.73-2.73 7-9.72 10.32-16.21 8.42-4.94-1.44-8.91-4.4-12.82-7.54-1.26-1-2.42-2.14-3.83-3.39zm13.96 6.32l.07-.23c.76-.08 1.51-.14 2.26-.23.24-.03.47-.1.7-.18 1.4-.45 1.68-1.21.6-2.24a32.34 32.34 0 0 0-3.9-3.12c-.34-.24-1.16-.22-1.5.03-1.39 1-2.68 2.14-3.99 3.25-.47.4-.47.88.17 1.08 1.85.58 3.73 1.1 5.59 1.64zM66.96 79.87H49.98c-2.2 0-4.4.05-6.6-.02-1.68-.04-3.29-.02-4.58 1.8-1.84-2.35-3.58-4.52-5.23-6.74-.17-.24.03-.92.26-1.26.4-.59.91-1.13 1.46-1.58.92-.75.86-1.47.17-2.34-1.4-1.75-2.73-3.54-4.1-5.3-1.49-1.9-1.33-2.72.93-3.71.93-.4 1.98-.7 2.99-.7 5.71-.07 11.43.03 17.15-.08 1.38-.03 2.8-.5 4.1-1 .74-.28 1.31-.35 1.85.15 1.6 1.5 3.19 3 4.73 4.56.8.8.5 1.65-.2 2.3-1.3 1.19-2.7 2.01-4.6 1.98-5.8-.08-11.59-.05-17.39.01-.91.01-1.89.3-2.72.7-1.04.5-1.12 1.58-.16 2.2.63.4 1.48.64 2.23.64 7.76.05 15.51.06 23.27.02.94 0 1.3.26 1.52 1.18.55 2.36 1.23 4.7 1.9 7.19zM34.5 141.49c-.93-.23-1.6-.5-2.27-.53-1.55-.07-3.11 0-4.67-.06-.4-.02-.97-.16-1.13-.44-1.3-2.19-2.53-4.42-3.77-6.64-.06-.12 0-.31 0-.57h2.98c9.87 0 19.74-.02 29.61.01 1.65.01 3.22.04 4.35-1.9 1.7 1.92 3.27 3.64 4.74 5.46.23.28.11 1.12-.15 1.48-.69.97-1.55 1.82-2.53 2.93 1.4 1.32 2.84 2.63 4.21 4 1.4 1.41 1.4 2.08.22 3.73-2.4 3.34-5.73 4.97-9.76 5.33-4.58.42-8.7-1.09-12.5-3.38-3.03-1.83-5.8-4.1-8.7-6.15-1.13-.78-1.74-1.66-.64-3.27zm4.88 4.53c4.16 2 8.24 2.86 12.58 1.38 3.04-1.03 5.5-2.75 6.86-6.1-4.07 0-7.94.3-11.72-.1-3.14-.33-5.1.77-6.62 3.25-.27.44-.6.85-1.1 1.57z"/></g></svg>